<?xml version="1.0" encoding="UTF-8"?>
<svg xmlns="http://www.w3.org/2000/svg" xmlns:xlink="http://www.w3.org/1999/xlink" width="500pt" height="500pt" viewBox="0 0 500 500" version="1.1">
<g id="surface20">
<path style="fill-rule:evenodd;fill:rgb(100%,100%,100%);fill-opacity:1;stroke-width:1;stroke-linecap:round;stroke-linejoin:miter;stroke:rgb(74.509804%,74.509804%,74.509804%);stroke-opacity:1;stroke-miterlimit:10;" d="M 54 57 L 54 114 L 103.363281 85.5 L 103.363281 28.5 Z M 54 57 L 4.636719 28.5 L 4.636719 85.5 L 54 114 Z M 54 57 L 103.363281 28.5 L 54 0 L 4.636719 28.5 "/>
<path style="fill-rule:evenodd;fill:rgb(100%,100%,100%);fill-opacity:1;stroke-width:1;stroke-linecap:round;stroke-linejoin:miter;stroke:rgb(74.509804%,74.509804%,74.509804%);stroke-opacity:1;stroke-miterlimit:10;" d="M 54 57 L 85.175781 75 L 85.175781 39 L 54 21 Z M 54 57 L 22.824219 75 L 54 93 L 85.175781 75 Z M 54 57 L 54 21 L 22.824219 39 L 22.824219 75 "/>
<path style="fill-rule:evenodd;fill:rgb(100%,100%,100%);fill-opacity:1;stroke-width:1;stroke-linecap:round;stroke-linejoin:miter;stroke:rgb(74.509804%,74.509804%,74.509804%);stroke-opacity:1;stroke-miterlimit:10;" d="M 54 57 L 54 81 L 74.785156 69 L 74.785156 45 Z M 54 57 L 33.214844 45 L 33.214844 69 L 54 81 Z M 54 57 L 74.785156 45 L 54 33 L 33.214844 45 "/>
<path style="fill-rule:evenodd;fill:rgb(100%,100%,100%);fill-opacity:1;stroke-width:1;stroke-linecap:round;stroke-linejoin:miter;stroke:rgb(74.509804%,74.509804%,74.509804%);stroke-opacity:1;stroke-miterlimit:10;" d="M 54 57 L 66.125 64 L 66.125 50 L 54 43 Z M 54 57 L 41.875 64 L 54 71 L 66.125 64 Z M 54 57 L 54 43 L 41.875 50 L 41.875 64 "/>
<path style="fill-rule:evenodd;fill:rgb(100%,100%,100%);fill-opacity:1;stroke-width:1;stroke-linecap:round;stroke-linejoin:miter;stroke:rgb(74.509804%,74.509804%,74.509804%);stroke-opacity:1;stroke-miterlimit:10;" d="M 54 57 L 54 67 L 62.660156 62 L 62.660156 52 Z M 54 57 L 45.339844 52 L 45.339844 62 L 54 67 Z M 54 57 L 62.660156 52 L 54 47 L 45.339844 52 "/>
<path style="fill-rule:evenodd;fill:rgb(100%,100%,100%);fill-opacity:1;stroke-width:1;stroke-linecap:round;stroke-linejoin:miter;stroke:rgb(74.509804%,74.509804%,74.509804%);stroke-opacity:1;stroke-miterlimit:10;" d="M 152.726562 57 L 202.089844 85.5 L 202.089844 28.5 L 152.726562 0 Z M 152.726562 57 L 103.363281 85.5 L 152.726562 114 L 202.089844 85.5 Z M 152.726562 57 L 152.726562 0 L 103.363281 28.5 L 103.363281 85.5 "/>
<path style="fill-rule:evenodd;fill:rgb(100%,100%,100%);fill-opacity:1;stroke-width:1;stroke-linecap:round;stroke-linejoin:miter;stroke:rgb(74.509804%,74.509804%,74.509804%);stroke-opacity:1;stroke-miterlimit:10;" d="M 152.726562 57 L 152.726562 94 L 184.769531 75.5 L 184.769531 38.5 Z M 152.726562 57 L 120.683594 38.5 L 120.683594 75.5 L 152.726562 94 Z M 152.726562 57 L 184.769531 38.5 L 152.726562 20 L 120.683594 38.5 "/>
<path style="fill-rule:evenodd;fill:rgb(100%,100%,100%);fill-opacity:1;stroke-width:1;stroke-linecap:round;stroke-linejoin:miter;stroke:rgb(74.509804%,74.509804%,74.509804%);stroke-opacity:1;stroke-miterlimit:10;" d="M 152.726562 57 L 176.109375 70.5 L 176.109375 43.5 L 152.726562 30 Z M 152.726562 57 L 129.34375 70.5 L 152.726562 84 L 176.109375 70.5 Z M 152.726562 57 L 152.726562 30 L 129.34375 43.5 L 129.34375 70.5 "/>
<path style="fill-rule:evenodd;fill:rgb(100%,100%,100%);fill-opacity:1;stroke-width:1;stroke-linecap:round;stroke-linejoin:miter;stroke:rgb(74.509804%,74.509804%,74.509804%);stroke-opacity:1;stroke-miterlimit:10;" d="M 251.453125 57 L 300.816406 85.5 L 300.816406 28.5 L 251.453125 0 Z M 251.453125 57 L 202.089844 85.5 L 251.453125 114 L 300.816406 85.5 Z M 251.453125 57 L 251.453125 0 L 202.089844 28.5 L 202.089844 85.5 "/>
<path style="fill-rule:evenodd;fill:rgb(100%,100%,100%);fill-opacity:1;stroke-width:1;stroke-linecap:round;stroke-linejoin:miter;stroke:rgb(74.509804%,74.509804%,74.509804%);stroke-opacity:1;stroke-miterlimit:10;" d="M 251.453125 57 L 251.453125 97 L 286.09375 77 L 286.09375 37 Z M 251.453125 57 L 216.8125 37 L 216.8125 77 L 251.453125 97 Z M 251.453125 57 L 286.09375 37 L 251.453125 17 L 216.8125 37 "/>
<path style="fill-rule:evenodd;fill:rgb(100%,100%,100%);fill-opacity:1;stroke-width:1;stroke-linecap:round;stroke-linejoin:miter;stroke:rgb(74.509804%,74.509804%,74.509804%);stroke-opacity:1;stroke-miterlimit:10;" d="M 251.453125 57 L 273.105469 69.5 L 273.105469 44.5 L 251.453125 32 Z M 251.453125 57 L 229.804688 69.5 L 251.453125 82 L 273.105469 69.5 Z M 251.453125 57 L 251.453125 32 L 229.804688 44.5 L 229.804688 69.5 "/>
<path style="fill-rule:evenodd;fill:rgb(100%,100%,100%);fill-opacity:1;stroke-width:1;stroke-linecap:round;stroke-linejoin:miter;stroke:rgb(74.509804%,74.509804%,74.509804%);stroke-opacity:1;stroke-miterlimit:10;" d="M 251.453125 57 L 251.453125 71 L 263.578125 64 L 263.578125 50 Z M 251.453125 57 L 239.328125 50 L 239.328125 64 L 251.453125 71 Z M 251.453125 57 L 263.578125 50 L 251.453125 43 L 239.328125 50 "/>
<path style="fill-rule:evenodd;fill:rgb(100%,100%,100%);fill-opacity:1;stroke-width:1;stroke-linecap:round;stroke-linejoin:miter;stroke:rgb(74.509804%,74.509804%,74.509804%);stroke-opacity:1;stroke-miterlimit:10;" d="M 350.179688 57 L 399.542969 85.5 L 399.542969 28.5 L 350.179688 0 Z M 350.179688 57 L 300.816406 85.5 L 350.179688 114 L 399.542969 85.5 Z M 350.179688 57 L 350.179688 0 L 300.816406 28.5 L 300.816406 85.5 "/>
<path style="fill-rule:evenodd;fill:rgb(100%,100%,100%);fill-opacity:1;stroke-width:1;stroke-linecap:round;stroke-linejoin:miter;stroke:rgb(74.509804%,74.509804%,74.509804%);stroke-opacity:1;stroke-miterlimit:10;" d="M 350.179688 57 L 350.179688 96 L 383.957031 76.5 L 383.957031 37.5 Z M 350.179688 57 L 316.40625 37.5 L 316.40625 76.5 L 350.179688 96 Z M 350.179688 57 L 383.957031 37.5 L 350.179688 18 L 316.40625 37.5 "/>
<path style="fill-rule:evenodd;fill:rgb(100%,100%,100%);fill-opacity:1;stroke-width:1;stroke-linecap:round;stroke-linejoin:miter;stroke:rgb(74.509804%,74.509804%,74.509804%);stroke-opacity:1;stroke-miterlimit:10;" d="M 350.179688 57 L 369.234375 68 L 369.234375 46 L 350.179688 35 Z M 350.179688 57 L 331.128906 68 L 350.179688 79 L 369.234375 68 Z M 350.179688 57 L 350.179688 35 L 331.128906 46 L 331.128906 68 "/>
<path style="fill-rule:evenodd;fill:rgb(100%,100%,100%);fill-opacity:1;stroke-width:1;stroke-linecap:round;stroke-linejoin:miter;stroke:rgb(74.509804%,74.509804%,74.509804%);stroke-opacity:1;stroke-miterlimit:10;" d="M 448.90625 57 L 498.269531 85.5 L 498.269531 28.5 L 448.90625 0 Z M 448.90625 57 L 399.542969 85.5 L 448.90625 114 L 498.269531 85.5 Z M 448.90625 57 L 448.90625 0 L 399.542969 28.5 L 399.542969 85.5 "/>
<path style="fill-rule:evenodd;fill:rgb(100%,100%,100%);fill-opacity:1;stroke-width:1;stroke-linecap:round;stroke-linejoin:miter;stroke:rgb(74.509804%,74.509804%,74.509804%);stroke-opacity:1;stroke-miterlimit:10;" d="M 448.90625 57 L 448.90625 88 L 475.753906 72.5 L 475.753906 41.5 Z M 448.90625 57 L 422.0625 41.5 L 422.0625 72.5 L 448.90625 88 Z M 448.90625 57 L 475.753906 41.5 L 448.90625 26 L 422.0625 41.5 "/>
<path style="fill-rule:evenodd;fill:rgb(100%,100%,100%);fill-opacity:1;stroke-width:1;stroke-linecap:round;stroke-linejoin:miter;stroke:rgb(74.509804%,74.509804%,74.509804%);stroke-opacity:1;stroke-miterlimit:10;" d="M 448.90625 57 L 463.628906 65.5 L 463.628906 48.5 L 448.90625 40 Z M 448.90625 57 L 434.183594 65.5 L 448.90625 74 L 463.628906 65.5 Z M 448.90625 57 L 448.90625 40 L 434.183594 48.5 L 434.183594 65.5 "/>
<path style="fill-rule:evenodd;fill:rgb(100%,100%,100%);fill-opacity:1;stroke-width:1;stroke-linecap:round;stroke-linejoin:miter;stroke:rgb(74.509804%,74.509804%,74.509804%);stroke-opacity:1;stroke-miterlimit:10;" d="M 448.90625 57 L 448.90625 67 L 457.566406 62 L 457.566406 52 Z M 448.90625 57 L 440.246094 52 L 440.246094 62 L 448.90625 67 Z M 448.90625 57 L 457.566406 52 L 448.90625 47 L 440.246094 52 "/>
<path style="fill-rule:evenodd;fill:rgb(100%,100%,100%);fill-opacity:1;stroke-width:1;stroke-linecap:round;stroke-linejoin:miter;stroke:rgb(74.509804%,74.509804%,74.509804%);stroke-opacity:1;stroke-miterlimit:10;" d="M 103.363281 142.5 L 103.363281 199.5 L 152.726562 171 L 152.726562 114 Z M 103.363281 142.5 L 54 114 L 54 171 L 103.363281 199.5 Z M 103.363281 142.5 L 152.726562 114 L 103.363281 85.5 L 54 114 "/>
<path style="fill-rule:evenodd;fill:rgb(100%,100%,100%);fill-opacity:1;stroke-width:1;stroke-linecap:round;stroke-linejoin:miter;stroke:rgb(74.509804%,74.509804%,74.509804%);stroke-opacity:1;stroke-miterlimit:10;" d="M 103.363281 142.5 L 139.738281 163.5 L 139.738281 121.5 L 103.363281 100.5 Z M 103.363281 142.5 L 66.992188 163.5 L 103.363281 184.5 L 139.738281 163.5 Z M 103.363281 142.5 L 103.363281 100.5 L 66.992188 121.5 L 66.992188 163.5 "/>
<path style="fill-rule:evenodd;fill:rgb(100%,100%,100%);fill-opacity:1;stroke-width:1;stroke-linecap:round;stroke-linejoin:miter;stroke:rgb(74.509804%,74.509804%,74.509804%);stroke-opacity:1;stroke-miterlimit:10;" d="M 103.363281 142.5 L 103.363281 167.5 L 125.015625 155 L 125.015625 130 Z M 103.363281 142.5 L 81.710938 130 L 81.710938 155 L 103.363281 167.5 Z M 103.363281 142.5 L 125.015625 130 L 103.363281 117.5 L 81.710938 130 "/>
<path style="fill-rule:evenodd;fill:rgb(100%,100%,100%);fill-opacity:1;stroke-width:1;stroke-linecap:round;stroke-linejoin:miter;stroke:rgb(74.509804%,74.509804%,74.509804%);stroke-opacity:1;stroke-miterlimit:10;" d="M 202.089844 142.5 L 251.453125 171 L 251.453125 114 L 202.089844 85.5 Z M 202.089844 142.5 L 152.726562 171 L 202.089844 199.5 L 251.453125 171 Z M 202.089844 142.5 L 202.089844 85.5 L 152.726562 114 L 152.726562 171 "/>
<path style="fill-rule:evenodd;fill:rgb(100%,100%,100%);fill-opacity:1;stroke-width:1;stroke-linecap:round;stroke-linejoin:miter;stroke:rgb(74.509804%,74.509804%,74.509804%);stroke-opacity:1;stroke-miterlimit:10;" d="M 202.089844 142.5 L 202.089844 183.5 L 237.597656 163 L 237.597656 122 Z M 202.089844 142.5 L 166.582031 122 L 166.582031 163 L 202.089844 183.5 Z M 202.089844 142.5 L 237.597656 122 L 202.089844 101.5 L 166.582031 122 "/>
<path style="fill-rule:evenodd;fill:rgb(100%,100%,100%);fill-opacity:1;stroke-width:1;stroke-linecap:round;stroke-linejoin:miter;stroke:rgb(74.509804%,74.509804%,74.509804%);stroke-opacity:1;stroke-miterlimit:10;" d="M 202.089844 142.5 L 227.207031 157 L 227.207031 128 L 202.089844 113.5 Z M 202.089844 142.5 L 176.976562 157 L 202.089844 171.5 L 227.207031 157 Z M 202.089844 142.5 L 202.089844 113.5 L 176.976562 128 L 176.976562 157 "/>
<path style="fill-rule:evenodd;fill:rgb(100%,100%,100%);fill-opacity:1;stroke-width:1;stroke-linecap:round;stroke-linejoin:miter;stroke:rgb(74.509804%,74.509804%,74.509804%);stroke-opacity:1;stroke-miterlimit:10;" d="M 300.816406 142.5 L 350.179688 171 L 350.179688 114 L 300.816406 85.5 Z M 300.816406 142.5 L 251.453125 171 L 300.816406 199.5 L 350.179688 171 Z M 300.816406 142.5 L 300.816406 85.5 L 251.453125 114 L 251.453125 171 "/>
<path style="fill-rule:evenodd;fill:rgb(100%,100%,100%);fill-opacity:1;stroke-width:1;stroke-linecap:round;stroke-linejoin:miter;stroke:rgb(74.509804%,74.509804%,74.509804%);stroke-opacity:1;stroke-miterlimit:10;" d="M 300.816406 142.5 L 300.816406 173.5 L 327.664062 158 L 327.664062 127 Z M 300.816406 142.5 L 273.96875 127 L 273.96875 158 L 300.816406 173.5 Z M 300.816406 142.5 L 327.664062 127 L 300.816406 111.5 L 273.96875 127 "/>
<path style="fill-rule:evenodd;fill:rgb(100%,100%,100%);fill-opacity:1;stroke-width:1;stroke-linecap:round;stroke-linejoin:miter;stroke:rgb(74.509804%,74.509804%,74.509804%);stroke-opacity:1;stroke-miterlimit:10;" d="M 300.816406 142.5 L 316.40625 151.5 L 316.40625 133.5 L 300.816406 124.5 Z M 300.816406 142.5 L 285.230469 151.5 L 300.816406 160.5 L 316.40625 151.5 Z M 300.816406 142.5 L 300.816406 124.5 L 285.230469 133.5 L 285.230469 151.5 "/>
<path style="fill-rule:evenodd;fill:rgb(100%,100%,100%);fill-opacity:1;stroke-width:1;stroke-linecap:round;stroke-linejoin:miter;stroke:rgb(74.509804%,74.509804%,74.509804%);stroke-opacity:1;stroke-miterlimit:10;" d="M 399.542969 142.5 L 399.542969 199.5 L 448.90625 171 L 448.90625 114 Z M 399.542969 142.5 L 350.179688 114 L 350.179688 171 L 399.542969 199.5 Z M 399.542969 142.5 L 448.90625 114 L 399.542969 85.5 L 350.179688 114 "/>
<path style="fill-rule:evenodd;fill:rgb(100%,100%,100%);fill-opacity:1;stroke-width:1;stroke-linecap:round;stroke-linejoin:miter;stroke:rgb(74.509804%,74.509804%,74.509804%);stroke-opacity:1;stroke-miterlimit:10;" d="M 399.542969 142.5 L 428.121094 159 L 428.121094 126 L 399.542969 109.5 Z M 399.542969 142.5 L 370.964844 159 L 399.542969 175.5 L 428.121094 159 Z M 399.542969 142.5 L 399.542969 109.5 L 370.964844 126 L 370.964844 159 "/>
<path style="fill-rule:evenodd;fill:rgb(100%,100%,100%);fill-opacity:1;stroke-width:1;stroke-linecap:round;stroke-linejoin:miter;stroke:rgb(74.509804%,74.509804%,74.509804%);stroke-opacity:1;stroke-miterlimit:10;" d="M 399.542969 142.5 L 399.542969 161.5 L 416 152 L 416 133 Z M 399.542969 142.5 L 383.089844 133 L 383.089844 152 L 399.542969 161.5 Z M 399.542969 142.5 L 416 133 L 399.542969 123.5 L 383.089844 133 "/>
<path style="fill-rule:evenodd;fill:rgb(100%,100%,100%);fill-opacity:1;stroke-width:1;stroke-linecap:round;stroke-linejoin:miter;stroke:rgb(74.509804%,74.509804%,74.509804%);stroke-opacity:1;stroke-miterlimit:10;" d="M 399.542969 142.5 L 408.203125 147.5 L 408.203125 137.5 L 399.542969 132.5 Z M 399.542969 142.5 L 390.882812 147.5 L 399.542969 152.5 L 408.203125 147.5 Z M 399.542969 142.5 L 399.542969 132.5 L 390.882812 137.5 L 390.882812 147.5 "/>
<path style="fill-rule:evenodd;fill:rgb(100%,100%,100%);fill-opacity:1;stroke-width:1;stroke-linecap:round;stroke-linejoin:miter;stroke:rgb(74.509804%,74.509804%,74.509804%);stroke-opacity:1;stroke-miterlimit:10;" d="M 152.726562 228 L 202.089844 256.5 L 202.089844 199.5 L 152.726562 171 Z M 152.726562 228 L 103.363281 256.5 L 152.726562 285 L 202.089844 256.5 Z M 152.726562 228 L 152.726562 171 L 103.363281 199.5 L 103.363281 256.5 "/>
<path style="fill-rule:evenodd;fill:rgb(100%,100%,100%);fill-opacity:1;stroke-width:1;stroke-linecap:round;stroke-linejoin:miter;stroke:rgb(74.509804%,74.509804%,74.509804%);stroke-opacity:1;stroke-miterlimit:10;" d="M 152.726562 228 L 152.726562 262 L 182.171875 245 L 182.171875 211 Z M 152.726562 228 L 123.28125 211 L 123.28125 245 L 152.726562 262 Z M 152.726562 228 L 182.171875 211 L 152.726562 194 L 123.28125 211 "/>
<path style="fill-rule:evenodd;fill:rgb(100%,100%,100%);fill-opacity:1;stroke-width:1;stroke-linecap:round;stroke-linejoin:miter;stroke:rgb(74.509804%,74.509804%,74.509804%);stroke-opacity:1;stroke-miterlimit:10;" d="M 152.726562 228 L 170.914062 238.5 L 170.914062 217.5 L 152.726562 207 Z M 152.726562 228 L 134.539062 238.5 L 152.726562 249 L 170.914062 238.5 Z M 152.726562 228 L 152.726562 207 L 134.539062 217.5 L 134.539062 238.5 "/>
<path style="fill-rule:evenodd;fill:rgb(100%,100%,100%);fill-opacity:1;stroke-width:1;stroke-linecap:round;stroke-linejoin:miter;stroke:rgb(74.509804%,74.509804%,74.509804%);stroke-opacity:1;stroke-miterlimit:10;" d="M 152.726562 228 L 152.726562 239 L 162.253906 233.5 L 162.253906 222.5 Z M 152.726562 228 L 143.199219 222.5 L 143.199219 233.5 L 152.726562 239 Z M 152.726562 228 L 162.253906 222.5 L 152.726562 217 L 143.199219 222.5 "/>
<path style="fill-rule:evenodd;fill:rgb(100%,100%,100%);fill-opacity:1;stroke-width:1;stroke-linecap:round;stroke-linejoin:miter;stroke:rgb(74.509804%,74.509804%,74.509804%);stroke-opacity:1;stroke-miterlimit:10;" d="M 251.453125 228 L 300.816406 256.5 L 300.816406 199.5 L 251.453125 171 Z M 251.453125 228 L 202.089844 256.5 L 251.453125 285 L 300.816406 256.5 Z M 251.453125 228 L 251.453125 171 L 202.089844 199.5 L 202.089844 256.5 "/>
<path style="fill-rule:evenodd;fill:rgb(100%,100%,100%);fill-opacity:1;stroke-width:1;stroke-linecap:round;stroke-linejoin:miter;stroke:rgb(74.509804%,74.509804%,74.509804%);stroke-opacity:1;stroke-miterlimit:10;" d="M 251.453125 228 L 251.453125 268 L 286.09375 248 L 286.09375 208 Z M 251.453125 228 L 216.8125 208 L 216.8125 248 L 251.453125 268 Z M 251.453125 228 L 286.09375 208 L 251.453125 188 L 216.8125 208 "/>
<path style="fill-rule:evenodd;fill:rgb(100%,100%,100%);fill-opacity:1;stroke-width:1;stroke-linecap:round;stroke-linejoin:miter;stroke:rgb(74.509804%,74.509804%,74.509804%);stroke-opacity:1;stroke-miterlimit:10;" d="M 251.453125 228 L 274.835938 241.5 L 274.835938 214.5 L 251.453125 201 Z M 251.453125 228 L 228.070312 241.5 L 251.453125 255 L 274.835938 241.5 Z M 251.453125 228 L 251.453125 201 L 228.070312 214.5 L 228.070312 241.5 "/>
<path style="fill-rule:evenodd;fill:rgb(100%,100%,100%);fill-opacity:1;stroke-width:1;stroke-linecap:round;stroke-linejoin:miter;stroke:rgb(74.509804%,74.509804%,74.509804%);stroke-opacity:1;stroke-miterlimit:10;" d="M 251.453125 228 L 251.453125 245 L 266.175781 236.5 L 266.175781 219.5 Z M 251.453125 228 L 236.730469 219.5 L 236.730469 236.5 L 251.453125 245 Z M 251.453125 228 L 266.175781 219.5 L 251.453125 211 L 236.730469 219.5 "/>
<path style="fill-rule:evenodd;fill:rgb(100%,100%,100%);fill-opacity:1;stroke-width:1;stroke-linecap:round;stroke-linejoin:miter;stroke:rgb(74.509804%,74.509804%,74.509804%);stroke-opacity:1;stroke-miterlimit:10;" d="M 350.179688 228 L 350.179688 285 L 399.542969 256.5 L 399.542969 199.5 Z M 350.179688 228 L 300.816406 199.5 L 300.816406 256.5 L 350.179688 285 Z M 350.179688 228 L 399.542969 199.5 L 350.179688 171 L 300.816406 199.5 "/>
<path style="fill-rule:evenodd;fill:rgb(100%,100%,100%);fill-opacity:1;stroke-width:1;stroke-linecap:round;stroke-linejoin:miter;stroke:rgb(74.509804%,74.509804%,74.509804%);stroke-opacity:1;stroke-miterlimit:10;" d="M 350.179688 228 L 384.820312 248 L 384.820312 208 L 350.179688 188 Z M 350.179688 228 L 315.539062 248 L 350.179688 268 L 384.820312 248 Z M 350.179688 228 L 350.179688 188 L 315.539062 208 L 315.539062 248 "/>
<path style="fill-rule:evenodd;fill:rgb(100%,100%,100%);fill-opacity:1;stroke-width:1;stroke-linecap:round;stroke-linejoin:miter;stroke:rgb(74.509804%,74.509804%,74.509804%);stroke-opacity:1;stroke-miterlimit:10;" d="M 350.179688 228 L 350.179688 251 L 370.097656 239.5 L 370.097656 216.5 Z M 350.179688 228 L 330.261719 216.5 L 330.261719 239.5 L 350.179688 251 Z M 350.179688 228 L 370.097656 216.5 L 350.179688 205 L 330.261719 216.5 "/>
</g>
</svg>
