<?xml version="1.0" encoding="UTF-8"?>
<svg xmlns="http://www.w3.org/2000/svg" xmlns:xlink="http://www.w3.org/1999/xlink" width="500pt" height="500pt" viewBox="0 0 500 500" version="1.1">
<g id="surface20">
<path style="fill-rule:evenodd;fill:rgb(100%,100%,100%);fill-opacity:1;stroke-width:1;stroke-linecap:round;stroke-linejoin:miter;stroke:rgb(74.509804%,74.509804%,74.509804%);stroke-opacity:1;stroke-miterlimit:10;" d="M 54 57 L 103.363281 85.5 L 103.363281 28.5 L 54 0 Z M 54 57 L 4.636719 85.5 L 54 114 L 103.363281 85.5 Z M 54 57 L 54 0 L 4.636719 28.5 L 4.636719 85.5 "/>
<path style="fill-rule:evenodd;fill:rgb(100%,100%,100%);fill-opacity:1;stroke-width:1;stroke-linecap:round;stroke-linejoin:miter;stroke:rgb(74.509804%,74.509804%,74.509804%);stroke-opacity:1;stroke-miterlimit:10;" d="M 54 57 L 54 93 L 85.175781 75 L 85.175781 39 Z M 54 57 L 22.824219 39 L 22.824219 75 L 54 93 Z M 54 57 L 85.175781 39 L 54 21 L 22.824219 39 "/>
<path style="fill-rule:evenodd;fill:rgb(100%,100%,100%);fill-opacity:1;stroke-width:1;stroke-linecap:round;stroke-linejoin:miter;stroke:rgb(74.509804%,74.509804%,74.509804%);stroke-opacity:1;stroke-miterlimit:10;" d="M 54 57 L 73.050781 68 L 73.050781 46 L 54 35 Z M 54 57 L 34.949219 68 L 54 79 L 73.050781 68 Z M 54 57 L 54 35 L 34.949219 46 L 34.949219 68 "/>
<path style="fill-rule:evenodd;fill:rgb(100%,100%,100%);fill-opacity:1;stroke-width:1;stroke-linecap:round;stroke-linejoin:miter;stroke:rgb(74.509804%,74.509804%,74.509804%);stroke-opacity:1;stroke-miterlimit:10;" d="M 54 57 L 54 69 L 64.390625 63 L 64.390625 51 Z M 54 57 L 43.609375 51 L 43.609375 63 L 54 69 Z M 54 57 L 64.390625 51 L 54 45 L 43.609375 51 "/>
<path style="fill-rule:evenodd;fill:rgb(100%,100%,100%);fill-opacity:1;stroke-width:1;stroke-linecap:round;stroke-linejoin:miter;stroke:rgb(74.509804%,74.509804%,74.509804%);stroke-opacity:1;stroke-miterlimit:10;" d="M 152.726562 57 L 202.089844 85.5 L 202.089844 28.5 L 152.726562 0 Z M 152.726562 57 L 103.363281 85.5 L 152.726562 114 L 202.089844 85.5 Z M 152.726562 57 L 152.726562 0 L 103.363281 28.5 L 103.363281 85.5 "/>
<path style="fill-rule:evenodd;fill:rgb(100%,100%,100%);fill-opacity:1;stroke-width:1;stroke-linecap:round;stroke-linejoin:miter;stroke:rgb(74.509804%,74.509804%,74.509804%);stroke-opacity:1;stroke-miterlimit:10;" d="M 152.726562 57 L 152.726562 99 L 189.101562 78 L 189.101562 36 Z M 152.726562 57 L 116.355469 36 L 116.355469 78 L 152.726562 99 Z M 152.726562 57 L 189.101562 36 L 152.726562 15 L 116.355469 36 "/>
<path style="fill-rule:evenodd;fill:rgb(100%,100%,100%);fill-opacity:1;stroke-width:1;stroke-linecap:round;stroke-linejoin:miter;stroke:rgb(74.509804%,74.509804%,74.509804%);stroke-opacity:1;stroke-miterlimit:10;" d="M 152.726562 57 L 176.109375 70.5 L 176.109375 43.5 L 152.726562 30 Z M 152.726562 57 L 129.34375 70.5 L 152.726562 84 L 176.109375 70.5 Z M 152.726562 57 L 152.726562 30 L 129.34375 43.5 L 129.34375 70.5 "/>
<path style="fill-rule:evenodd;fill:rgb(100%,100%,100%);fill-opacity:1;stroke-width:1;stroke-linecap:round;stroke-linejoin:miter;stroke:rgb(74.509804%,74.509804%,74.509804%);stroke-opacity:1;stroke-miterlimit:10;" d="M 152.726562 57 L 152.726562 72 L 165.71875 64.5 L 165.71875 49.5 Z M 152.726562 57 L 139.738281 49.5 L 139.738281 64.5 L 152.726562 72 Z M 152.726562 57 L 165.71875 49.5 L 152.726562 42 L 139.738281 49.5 "/>
<path style="fill-rule:evenodd;fill:rgb(100%,100%,100%);fill-opacity:1;stroke-width:1;stroke-linecap:round;stroke-linejoin:miter;stroke:rgb(74.509804%,74.509804%,74.509804%);stroke-opacity:1;stroke-miterlimit:10;" d="M 152.726562 57 L 161.386719 62 L 161.386719 52 L 152.726562 47 Z M 152.726562 57 L 144.066406 62 L 152.726562 67 L 161.386719 62 Z M 152.726562 57 L 152.726562 47 L 144.066406 52 L 144.066406 62 "/>
<path style="fill-rule:evenodd;fill:rgb(100%,100%,100%);fill-opacity:1;stroke-width:1;stroke-linecap:round;stroke-linejoin:miter;stroke:rgb(74.509804%,74.509804%,74.509804%);stroke-opacity:1;stroke-miterlimit:10;" d="M 251.453125 57 L 251.453125 114 L 300.816406 85.5 L 300.816406 28.5 Z M 251.453125 57 L 202.089844 28.5 L 202.089844 85.5 L 251.453125 114 Z M 251.453125 57 L 300.816406 28.5 L 251.453125 0 L 202.089844 28.5 "/>
<path style="fill-rule:evenodd;fill:rgb(100%,100%,100%);fill-opacity:1;stroke-width:1;stroke-linecap:round;stroke-linejoin:miter;stroke:rgb(74.509804%,74.509804%,74.509804%);stroke-opacity:1;stroke-miterlimit:10;" d="M 251.453125 57 L 279.167969 73 L 279.167969 41 L 251.453125 25 Z M 251.453125 57 L 223.742188 73 L 251.453125 89 L 279.167969 73 Z M 251.453125 57 L 251.453125 25 L 223.742188 41 L 223.742188 73 "/>
<path style="fill-rule:evenodd;fill:rgb(100%,100%,100%);fill-opacity:1;stroke-width:1;stroke-linecap:round;stroke-linejoin:miter;stroke:rgb(74.509804%,74.509804%,74.509804%);stroke-opacity:1;stroke-miterlimit:10;" d="M 251.453125 57 L 251.453125 77 L 268.773438 67 L 268.773438 47 Z M 251.453125 57 L 234.132812 47 L 234.132812 67 L 251.453125 77 Z M 251.453125 57 L 268.773438 47 L 251.453125 37 L 234.132812 47 "/>
<path style="fill-rule:evenodd;fill:rgb(100%,100%,100%);fill-opacity:1;stroke-width:1;stroke-linecap:round;stroke-linejoin:miter;stroke:rgb(74.509804%,74.509804%,74.509804%);stroke-opacity:1;stroke-miterlimit:10;" d="M 251.453125 57 L 260.113281 62 L 260.113281 52 L 251.453125 47 Z M 251.453125 57 L 242.792969 62 L 251.453125 67 L 260.113281 62 Z M 251.453125 57 L 251.453125 47 L 242.792969 52 L 242.792969 62 "/>
<path style="fill-rule:evenodd;fill:rgb(100%,100%,100%);fill-opacity:1;stroke-width:1;stroke-linecap:round;stroke-linejoin:miter;stroke:rgb(74.509804%,74.509804%,74.509804%);stroke-opacity:1;stroke-miterlimit:10;" d="M 251.453125 57 L 251.453125 67 L 260.113281 62 L 260.113281 52 Z M 251.453125 57 L 242.792969 52 L 242.792969 62 L 251.453125 67 Z M 251.453125 57 L 260.113281 52 L 251.453125 47 L 242.792969 52 "/>
<path style="fill-rule:evenodd;fill:rgb(100%,100%,100%);fill-opacity:1;stroke-width:1;stroke-linecap:round;stroke-linejoin:miter;stroke:rgb(74.509804%,74.509804%,74.509804%);stroke-opacity:1;stroke-miterlimit:10;" d="M 350.179688 57 L 399.542969 85.5 L 399.542969 28.5 L 350.179688 0 Z M 350.179688 57 L 300.816406 85.5 L 350.179688 114 L 399.542969 85.5 Z M 350.179688 57 L 350.179688 0 L 300.816406 28.5 L 300.816406 85.5 "/>
<path style="fill-rule:evenodd;fill:rgb(100%,100%,100%);fill-opacity:1;stroke-width:1;stroke-linecap:round;stroke-linejoin:miter;stroke:rgb(74.509804%,74.509804%,74.509804%);stroke-opacity:1;stroke-miterlimit:10;" d="M 350.179688 57 L 350.179688 100 L 387.417969 78.5 L 387.417969 35.5 Z M 350.179688 57 L 312.941406 35.5 L 312.941406 78.5 L 350.179688 100 Z M 350.179688 57 L 387.417969 35.5 L 350.179688 14 L 312.941406 35.5 "/>
<path style="fill-rule:evenodd;fill:rgb(100%,100%,100%);fill-opacity:1;stroke-width:1;stroke-linecap:round;stroke-linejoin:miter;stroke:rgb(74.509804%,74.509804%,74.509804%);stroke-opacity:1;stroke-miterlimit:10;" d="M 350.179688 57 L 371.832031 69.5 L 371.832031 44.5 L 350.179688 32 Z M 350.179688 57 L 328.53125 69.5 L 350.179688 82 L 371.832031 69.5 Z M 350.179688 57 L 350.179688 32 L 328.53125 44.5 L 328.53125 69.5 "/>
<path style="fill-rule:evenodd;fill:rgb(100%,100%,100%);fill-opacity:1;stroke-width:1;stroke-linecap:round;stroke-linejoin:miter;stroke:rgb(74.509804%,74.509804%,74.509804%);stroke-opacity:1;stroke-miterlimit:10;" d="M 448.90625 57 L 448.90625 114 L 498.269531 85.5 L 498.269531 28.5 Z M 448.90625 57 L 399.542969 28.5 L 399.542969 85.5 L 448.90625 114 Z M 448.90625 57 L 498.269531 28.5 L 448.90625 0 L 399.542969 28.5 "/>
<path style="fill-rule:evenodd;fill:rgb(100%,100%,100%);fill-opacity:1;stroke-width:1;stroke-linecap:round;stroke-linejoin:miter;stroke:rgb(74.509804%,74.509804%,74.509804%);stroke-opacity:1;stroke-miterlimit:10;" d="M 448.90625 57 L 487.878906 79.5 L 487.878906 34.5 L 448.90625 12 Z M 448.90625 57 L 409.9375 79.5 L 448.90625 102 L 487.878906 79.5 Z M 448.90625 57 L 448.90625 12 L 409.9375 34.5 L 409.9375 79.5 "/>
<path style="fill-rule:evenodd;fill:rgb(100%,100%,100%);fill-opacity:1;stroke-width:1;stroke-linecap:round;stroke-linejoin:miter;stroke:rgb(74.509804%,74.509804%,74.509804%);stroke-opacity:1;stroke-miterlimit:10;" d="M 448.90625 57 L 448.90625 87 L 474.886719 72 L 474.886719 42 Z M 448.90625 57 L 422.925781 42 L 422.925781 72 L 448.90625 87 Z M 448.90625 57 L 474.886719 42 L 448.90625 27 L 422.925781 42 "/>
<path style="fill-rule:evenodd;fill:rgb(100%,100%,100%);fill-opacity:1;stroke-width:1;stroke-linecap:round;stroke-linejoin:miter;stroke:rgb(74.509804%,74.509804%,74.509804%);stroke-opacity:1;stroke-miterlimit:10;" d="M 103.363281 142.5 L 103.363281 199.5 L 152.726562 171 L 152.726562 114 Z M 103.363281 142.5 L 54 114 L 54 171 L 103.363281 199.5 Z M 103.363281 142.5 L 152.726562 114 L 103.363281 85.5 L 54 114 "/>
<path style="fill-rule:evenodd;fill:rgb(100%,100%,100%);fill-opacity:1;stroke-width:1;stroke-linecap:round;stroke-linejoin:miter;stroke:rgb(74.509804%,74.509804%,74.509804%);stroke-opacity:1;stroke-miterlimit:10;" d="M 103.363281 142.5 L 136.273438 161.5 L 136.273438 123.5 L 103.363281 104.5 Z M 103.363281 142.5 L 70.453125 161.5 L 103.363281 180.5 L 136.273438 161.5 Z M 103.363281 142.5 L 103.363281 104.5 L 70.453125 123.5 L 70.453125 161.5 "/>
<path style="fill-rule:evenodd;fill:rgb(100%,100%,100%);fill-opacity:1;stroke-width:1;stroke-linecap:round;stroke-linejoin:miter;stroke:rgb(74.509804%,74.509804%,74.509804%);stroke-opacity:1;stroke-miterlimit:10;" d="M 103.363281 142.5 L 103.363281 170.5 L 127.613281 156.5 L 127.613281 128.5 Z M 103.363281 142.5 L 79.113281 128.5 L 79.113281 156.5 L 103.363281 170.5 Z M 103.363281 142.5 L 127.613281 128.5 L 103.363281 114.5 L 79.113281 128.5 "/>
<path style="fill-rule:evenodd;fill:rgb(100%,100%,100%);fill-opacity:1;stroke-width:1;stroke-linecap:round;stroke-linejoin:miter;stroke:rgb(74.509804%,74.509804%,74.509804%);stroke-opacity:1;stroke-miterlimit:10;" d="M 202.089844 142.5 L 202.089844 199.5 L 251.453125 171 L 251.453125 114 Z M 202.089844 142.5 L 152.726562 114 L 152.726562 171 L 202.089844 199.5 Z M 202.089844 142.5 L 251.453125 114 L 202.089844 85.5 L 152.726562 114 "/>
<path style="fill-rule:evenodd;fill:rgb(100%,100%,100%);fill-opacity:1;stroke-width:1;stroke-linecap:round;stroke-linejoin:miter;stroke:rgb(74.509804%,74.509804%,74.509804%);stroke-opacity:1;stroke-miterlimit:10;" d="M 202.089844 142.5 L 228.9375 158 L 228.9375 127 L 202.089844 111.5 Z M 202.089844 142.5 L 175.242188 158 L 202.089844 173.5 L 228.9375 158 Z M 202.089844 142.5 L 202.089844 111.5 L 175.242188 127 L 175.242188 158 "/>
<path style="fill-rule:evenodd;fill:rgb(100%,100%,100%);fill-opacity:1;stroke-width:1;stroke-linecap:round;stroke-linejoin:miter;stroke:rgb(74.509804%,74.509804%,74.509804%);stroke-opacity:1;stroke-miterlimit:10;" d="M 202.089844 142.5 L 202.089844 159.5 L 216.8125 151 L 216.8125 134 Z M 202.089844 142.5 L 187.367188 134 L 187.367188 151 L 202.089844 159.5 Z M 202.089844 142.5 L 216.8125 134 L 202.089844 125.5 L 187.367188 134 "/>
<path style="fill-rule:evenodd;fill:rgb(100%,100%,100%);fill-opacity:1;stroke-width:1;stroke-linecap:round;stroke-linejoin:miter;stroke:rgb(74.509804%,74.509804%,74.509804%);stroke-opacity:1;stroke-miterlimit:10;" d="M 202.089844 142.5 L 210.75 147.5 L 210.75 137.5 L 202.089844 132.5 Z M 202.089844 142.5 L 193.429688 147.5 L 202.089844 152.5 L 210.75 147.5 Z M 202.089844 142.5 L 202.089844 132.5 L 193.429688 137.5 L 193.429688 147.5 "/>
<path style="fill-rule:evenodd;fill:rgb(100%,100%,100%);fill-opacity:1;stroke-width:1;stroke-linecap:round;stroke-linejoin:miter;stroke:rgb(74.509804%,74.509804%,74.509804%);stroke-opacity:1;stroke-miterlimit:10;" d="M 202.089844 142.5 L 202.089844 152.5 L 210.75 147.5 L 210.75 137.5 Z M 202.089844 142.5 L 193.429688 137.5 L 193.429688 147.5 L 202.089844 152.5 Z M 202.089844 142.5 L 210.75 137.5 L 202.089844 132.5 L 193.429688 137.5 "/>
<path style="fill-rule:evenodd;fill:rgb(100%,100%,100%);fill-opacity:1;stroke-width:1;stroke-linecap:round;stroke-linejoin:miter;stroke:rgb(74.509804%,74.509804%,74.509804%);stroke-opacity:1;stroke-miterlimit:10;" d="M 300.816406 142.5 L 300.816406 199.5 L 350.179688 171 L 350.179688 114 Z M 300.816406 142.5 L 251.453125 114 L 251.453125 171 L 300.816406 199.5 Z M 300.816406 142.5 L 350.179688 114 L 300.816406 85.5 L 251.453125 114 "/>
<path style="fill-rule:evenodd;fill:rgb(100%,100%,100%);fill-opacity:1;stroke-width:1;stroke-linecap:round;stroke-linejoin:miter;stroke:rgb(74.509804%,74.509804%,74.509804%);stroke-opacity:1;stroke-miterlimit:10;" d="M 300.816406 142.5 L 326.796875 157.5 L 326.796875 127.5 L 300.816406 112.5 Z M 300.816406 142.5 L 274.835938 157.5 L 300.816406 172.5 L 326.796875 157.5 Z M 300.816406 142.5 L 300.816406 112.5 L 274.835938 127.5 L 274.835938 157.5 "/>
<path style="fill-rule:evenodd;fill:rgb(100%,100%,100%);fill-opacity:1;stroke-width:1;stroke-linecap:round;stroke-linejoin:miter;stroke:rgb(74.509804%,74.509804%,74.509804%);stroke-opacity:1;stroke-miterlimit:10;" d="M 300.816406 142.5 L 300.816406 160.5 L 316.40625 151.5 L 316.40625 133.5 Z M 300.816406 142.5 L 285.230469 133.5 L 285.230469 151.5 L 300.816406 160.5 Z M 300.816406 142.5 L 316.40625 133.5 L 300.816406 124.5 L 285.230469 133.5 "/>
<path style="fill-rule:evenodd;fill:rgb(100%,100%,100%);fill-opacity:1;stroke-width:1;stroke-linecap:round;stroke-linejoin:miter;stroke:rgb(74.509804%,74.509804%,74.509804%);stroke-opacity:1;stroke-miterlimit:10;" d="M 300.816406 142.5 L 309.476562 147.5 L 309.476562 137.5 L 300.816406 132.5 Z M 300.816406 142.5 L 292.15625 147.5 L 300.816406 152.5 L 309.476562 147.5 Z M 300.816406 142.5 L 300.816406 132.5 L 292.15625 137.5 L 292.15625 147.5 "/>
<path style="fill-rule:evenodd;fill:rgb(100%,100%,100%);fill-opacity:1;stroke-width:1;stroke-linecap:round;stroke-linejoin:miter;stroke:rgb(74.509804%,74.509804%,74.509804%);stroke-opacity:1;stroke-miterlimit:10;" d="M 300.816406 142.5 L 300.816406 152.5 L 309.476562 147.5 L 309.476562 137.5 Z M 300.816406 142.5 L 292.15625 137.5 L 292.15625 147.5 L 300.816406 152.5 Z M 300.816406 142.5 L 309.476562 137.5 L 300.816406 132.5 L 292.15625 137.5 "/>
<path style="fill-rule:evenodd;fill:rgb(100%,100%,100%);fill-opacity:1;stroke-width:1;stroke-linecap:round;stroke-linejoin:miter;stroke:rgb(74.509804%,74.509804%,74.509804%);stroke-opacity:1;stroke-miterlimit:10;" d="M 399.542969 142.5 L 448.90625 171 L 448.90625 114 L 399.542969 85.5 Z M 399.542969 142.5 L 350.179688 171 L 399.542969 199.5 L 448.90625 171 Z M 399.542969 142.5 L 399.542969 85.5 L 350.179688 114 L 350.179688 171 "/>
<path style="fill-rule:evenodd;fill:rgb(100%,100%,100%);fill-opacity:1;stroke-width:1;stroke-linecap:round;stroke-linejoin:miter;stroke:rgb(74.509804%,74.509804%,74.509804%);stroke-opacity:1;stroke-miterlimit:10;" d="M 399.542969 142.5 L 399.542969 179.5 L 431.585938 161 L 431.585938 124 Z M 399.542969 142.5 L 367.5 124 L 367.5 161 L 399.542969 179.5 Z M 399.542969 142.5 L 431.585938 124 L 399.542969 105.5 L 367.5 124 "/>
<path style="fill-rule:evenodd;fill:rgb(100%,100%,100%);fill-opacity:1;stroke-width:1;stroke-linecap:round;stroke-linejoin:miter;stroke:rgb(74.509804%,74.509804%,74.509804%);stroke-opacity:1;stroke-miterlimit:10;" d="M 399.542969 142.5 L 422.925781 156 L 422.925781 129 L 399.542969 115.5 Z M 399.542969 142.5 L 376.160156 156 L 399.542969 169.5 L 422.925781 156 Z M 399.542969 142.5 L 399.542969 115.5 L 376.160156 129 L 376.160156 156 "/>
<path style="fill-rule:evenodd;fill:rgb(100%,100%,100%);fill-opacity:1;stroke-width:1;stroke-linecap:round;stroke-linejoin:miter;stroke:rgb(74.509804%,74.509804%,74.509804%);stroke-opacity:1;stroke-miterlimit:10;" d="M 152.726562 228 L 152.726562 285 L 202.089844 256.5 L 202.089844 199.5 Z M 152.726562 228 L 103.363281 199.5 L 103.363281 256.5 L 152.726562 285 Z M 152.726562 228 L 202.089844 199.5 L 152.726562 171 L 103.363281 199.5 "/>
<path style="fill-rule:evenodd;fill:rgb(100%,100%,100%);fill-opacity:1;stroke-width:1;stroke-linecap:round;stroke-linejoin:miter;stroke:rgb(74.509804%,74.509804%,74.509804%);stroke-opacity:1;stroke-miterlimit:10;" d="M 152.726562 228 L 185.636719 247 L 185.636719 209 L 152.726562 190 Z M 152.726562 228 L 119.816406 247 L 152.726562 266 L 185.636719 247 Z M 152.726562 228 L 152.726562 190 L 119.816406 209 L 119.816406 247 "/>
<path style="fill-rule:evenodd;fill:rgb(100%,100%,100%);fill-opacity:1;stroke-width:1;stroke-linecap:round;stroke-linejoin:miter;stroke:rgb(74.509804%,74.509804%,74.509804%);stroke-opacity:1;stroke-miterlimit:10;" d="M 152.726562 228 L 152.726562 252 L 173.511719 240 L 173.511719 216 Z M 152.726562 228 L 131.941406 216 L 131.941406 240 L 152.726562 252 Z M 152.726562 228 L 173.511719 216 L 152.726562 204 L 131.941406 216 "/>
<path style="fill-rule:evenodd;fill:rgb(100%,100%,100%);fill-opacity:1;stroke-width:1;stroke-linecap:round;stroke-linejoin:miter;stroke:rgb(74.509804%,74.509804%,74.509804%);stroke-opacity:1;stroke-miterlimit:10;" d="M 152.726562 228 L 163.984375 234.5 L 163.984375 221.5 L 152.726562 215 Z M 152.726562 228 L 141.46875 234.5 L 152.726562 241 L 163.984375 234.5 Z M 152.726562 228 L 152.726562 215 L 141.46875 221.5 L 141.46875 234.5 "/>
<path style="fill-rule:evenodd;fill:rgb(100%,100%,100%);fill-opacity:1;stroke-width:1;stroke-linecap:round;stroke-linejoin:miter;stroke:rgb(74.509804%,74.509804%,74.509804%);stroke-opacity:1;stroke-miterlimit:10;" d="M 251.453125 228 L 251.453125 285 L 300.816406 256.5 L 300.816406 199.5 Z M 251.453125 228 L 202.089844 199.5 L 202.089844 256.5 L 251.453125 285 Z M 251.453125 228 L 300.816406 199.5 L 251.453125 171 L 202.089844 199.5 "/>
<path style="fill-rule:evenodd;fill:rgb(100%,100%,100%);fill-opacity:1;stroke-width:1;stroke-linecap:round;stroke-linejoin:miter;stroke:rgb(74.509804%,74.509804%,74.509804%);stroke-opacity:1;stroke-miterlimit:10;" d="M 251.453125 228 L 284.363281 247 L 284.363281 209 L 251.453125 190 Z M 251.453125 228 L 218.542969 247 L 251.453125 266 L 284.363281 247 Z M 251.453125 228 L 251.453125 190 L 218.542969 209 L 218.542969 247 "/>
<path style="fill-rule:evenodd;fill:rgb(100%,100%,100%);fill-opacity:1;stroke-width:1;stroke-linecap:round;stroke-linejoin:miter;stroke:rgb(74.509804%,74.509804%,74.509804%);stroke-opacity:1;stroke-miterlimit:10;" d="M 251.453125 228 L 251.453125 249 L 269.640625 238.5 L 269.640625 217.5 Z M 251.453125 228 L 233.265625 217.5 L 233.265625 238.5 L 251.453125 249 Z M 251.453125 228 L 269.640625 217.5 L 251.453125 207 L 233.265625 217.5 "/>
<path style="fill-rule:evenodd;fill:rgb(100%,100%,100%);fill-opacity:1;stroke-width:1;stroke-linecap:round;stroke-linejoin:miter;stroke:rgb(74.509804%,74.509804%,74.509804%);stroke-opacity:1;stroke-miterlimit:10;" d="M 350.179688 228 L 399.542969 256.5 L 399.542969 199.5 L 350.179688 171 Z M 350.179688 228 L 300.816406 256.5 L 350.179688 285 L 399.542969 256.5 Z M 350.179688 228 L 350.179688 171 L 300.816406 199.5 L 300.816406 256.5 "/>
<path style="fill-rule:evenodd;fill:rgb(100%,100%,100%);fill-opacity:1;stroke-width:1;stroke-linecap:round;stroke-linejoin:miter;stroke:rgb(74.509804%,74.509804%,74.509804%);stroke-opacity:1;stroke-miterlimit:10;" d="M 350.179688 228 L 350.179688 263 L 380.492188 245.5 L 380.492188 210.5 Z M 350.179688 228 L 319.871094 210.5 L 319.871094 245.5 L 350.179688 263 Z M 350.179688 228 L 380.492188 210.5 L 350.179688 193 L 319.871094 210.5 "/>
<path style="fill-rule:evenodd;fill:rgb(100%,100%,100%);fill-opacity:1;stroke-width:1;stroke-linecap:round;stroke-linejoin:miter;stroke:rgb(74.509804%,74.509804%,74.509804%);stroke-opacity:1;stroke-miterlimit:10;" d="M 350.179688 228 L 369.234375 239 L 369.234375 217 L 350.179688 206 Z M 350.179688 228 L 331.128906 239 L 350.179688 250 L 369.234375 239 Z M 350.179688 228 L 350.179688 206 L 331.128906 217 L 331.128906 239 "/>
<path style="fill-rule:evenodd;fill:rgb(100%,100%,100%);fill-opacity:1;stroke-width:1;stroke-linecap:round;stroke-linejoin:miter;stroke:rgb(74.509804%,74.509804%,74.509804%);stroke-opacity:1;stroke-miterlimit:10;" d="M 350.179688 228 L 350.179688 240 L 360.574219 234 L 360.574219 222 Z M 350.179688 228 L 339.789062 222 L 339.789062 234 L 350.179688 240 Z M 350.179688 228 L 360.574219 222 L 350.179688 216 L 339.789062 222 "/>
<path style="fill-rule:evenodd;fill:rgb(100%,100%,100%);fill-opacity:1;stroke-width:1;stroke-linecap:round;stroke-linejoin:miter;stroke:rgb(74.509804%,74.509804%,74.509804%);stroke-opacity:1;stroke-miterlimit:10;" d="M 350.179688 228 L 358.839844 233 L 358.839844 223 L 350.179688 218 Z M 350.179688 228 L 341.519531 233 L 350.179688 238 L 358.839844 233 Z M 350.179688 228 L 350.179688 218 L 341.519531 223 L 341.519531 233 "/>
</g>
</svg>
