<?xml version="1.0" encoding="UTF-8"?>
<svg xmlns="http://www.w3.org/2000/svg" xmlns:xlink="http://www.w3.org/1999/xlink" width="500pt" height="500pt" viewBox="0 0 500 500" version="1.1">
<g id="surface20">
<path style="fill-rule:evenodd;fill:rgb(100%,100%,100%);fill-opacity:1;stroke-width:1;stroke-linecap:round;stroke-linejoin:miter;stroke:rgb(74.509804%,74.509804%,74.509804%);stroke-opacity:1;stroke-miterlimit:10;" d="M 54 57 L 103.363281 85.5 L 103.363281 28.5 L 54 0 Z M 54 57 L 4.636719 85.5 L 54 114 L 103.363281 85.5 Z M 54 57 L 54 0 L 4.636719 28.5 L 4.636719 85.5 "/>
<path style="fill-rule:evenodd;fill:rgb(100%,100%,100%);fill-opacity:1;stroke-width:1;stroke-linecap:round;stroke-linejoin:miter;stroke:rgb(74.509804%,74.509804%,74.509804%);stroke-opacity:1;stroke-miterlimit:10;" d="M 54 57 L 54 98 L 89.507812 77.5 L 89.507812 36.5 Z M 54 57 L 18.492188 36.5 L 18.492188 77.5 L 54 98 Z M 54 57 L 89.507812 36.5 L 54 16 L 18.492188 36.5 "/>
<path style="fill-rule:evenodd;fill:rgb(100%,100%,100%);fill-opacity:1;stroke-width:1;stroke-linecap:round;stroke-linejoin:miter;stroke:rgb(74.509804%,74.509804%,74.509804%);stroke-opacity:1;stroke-miterlimit:10;" d="M 54 57 L 76.515625 70 L 76.515625 44 L 54 31 Z M 54 57 L 31.484375 70 L 54 83 L 76.515625 70 Z M 54 57 L 54 31 L 31.484375 44 L 31.484375 70 "/>
<path style="fill-rule:evenodd;fill:rgb(100%,100%,100%);fill-opacity:1;stroke-width:1;stroke-linecap:round;stroke-linejoin:miter;stroke:rgb(74.509804%,74.509804%,74.509804%);stroke-opacity:1;stroke-miterlimit:10;" d="M 54 57 L 54 71 L 66.125 64 L 66.125 50 Z M 54 57 L 41.875 50 L 41.875 64 L 54 71 Z M 54 57 L 66.125 50 L 54 43 L 41.875 50 "/>
<path style="fill-rule:evenodd;fill:rgb(100%,100%,100%);fill-opacity:1;stroke-width:1;stroke-linecap:round;stroke-linejoin:miter;stroke:rgb(74.509804%,74.509804%,74.509804%);stroke-opacity:1;stroke-miterlimit:10;" d="M 54 57 L 62.660156 62 L 62.660156 52 L 54 47 Z M 54 57 L 45.339844 62 L 54 67 L 62.660156 62 Z M 54 57 L 54 47 L 45.339844 52 L 45.339844 62 "/>
<path style="fill-rule:evenodd;fill:rgb(100%,100%,100%);fill-opacity:1;stroke-width:1;stroke-linecap:round;stroke-linejoin:miter;stroke:rgb(74.509804%,74.509804%,74.509804%);stroke-opacity:1;stroke-miterlimit:10;" d="M 152.726562 57 L 202.089844 85.5 L 202.089844 28.5 L 152.726562 0 Z M 152.726562 57 L 103.363281 85.5 L 152.726562 114 L 202.089844 85.5 Z M 152.726562 57 L 152.726562 0 L 103.363281 28.5 L 103.363281 85.5 "/>
<path style="fill-rule:evenodd;fill:rgb(100%,100%,100%);fill-opacity:1;stroke-width:1;stroke-linecap:round;stroke-linejoin:miter;stroke:rgb(74.509804%,74.509804%,74.509804%);stroke-opacity:1;stroke-miterlimit:10;" d="M 152.726562 57 L 152.726562 94 L 184.769531 75.5 L 184.769531 38.5 Z M 152.726562 57 L 120.683594 38.5 L 120.683594 75.5 L 152.726562 94 Z M 152.726562 57 L 184.769531 38.5 L 152.726562 20 L 120.683594 38.5 "/>
<path style="fill-rule:evenodd;fill:rgb(100%,100%,100%);fill-opacity:1;stroke-width:1;stroke-linecap:round;stroke-linejoin:miter;stroke:rgb(74.509804%,74.509804%,74.509804%);stroke-opacity:1;stroke-miterlimit:10;" d="M 152.726562 57 L 175.242188 70 L 175.242188 44 L 152.726562 31 Z M 152.726562 57 L 130.210938 70 L 152.726562 83 L 175.242188 70 Z M 152.726562 57 L 152.726562 31 L 130.210938 44 L 130.210938 70 "/>
<path style="fill-rule:evenodd;fill:rgb(100%,100%,100%);fill-opacity:1;stroke-width:1;stroke-linecap:round;stroke-linejoin:miter;stroke:rgb(74.509804%,74.509804%,74.509804%);stroke-opacity:1;stroke-miterlimit:10;" d="M 251.453125 57 L 300.816406 85.5 L 300.816406 28.5 L 251.453125 0 Z M 251.453125 57 L 202.089844 85.5 L 251.453125 114 L 300.816406 85.5 Z M 251.453125 57 L 251.453125 0 L 202.089844 28.5 L 202.089844 85.5 "/>
<path style="fill-rule:evenodd;fill:rgb(100%,100%,100%);fill-opacity:1;stroke-width:1;stroke-linecap:round;stroke-linejoin:miter;stroke:rgb(74.509804%,74.509804%,74.509804%);stroke-opacity:1;stroke-miterlimit:10;" d="M 251.453125 57 L 251.453125 96 L 285.230469 76.5 L 285.230469 37.5 Z M 251.453125 57 L 217.679688 37.5 L 217.679688 76.5 L 251.453125 96 Z M 251.453125 57 L 285.230469 37.5 L 251.453125 18 L 217.679688 37.5 "/>
<path style="fill-rule:evenodd;fill:rgb(100%,100%,100%);fill-opacity:1;stroke-width:1;stroke-linecap:round;stroke-linejoin:miter;stroke:rgb(74.509804%,74.509804%,74.509804%);stroke-opacity:1;stroke-miterlimit:10;" d="M 251.453125 57 L 273.96875 70 L 273.96875 44 L 251.453125 31 Z M 251.453125 57 L 228.9375 70 L 251.453125 83 L 273.96875 70 Z M 251.453125 57 L 251.453125 31 L 228.9375 44 L 228.9375 70 "/>
<path style="fill-rule:evenodd;fill:rgb(100%,100%,100%);fill-opacity:1;stroke-width:1;stroke-linecap:round;stroke-linejoin:miter;stroke:rgb(74.509804%,74.509804%,74.509804%);stroke-opacity:1;stroke-miterlimit:10;" d="M 251.453125 57 L 251.453125 71 L 263.578125 64 L 263.578125 50 Z M 251.453125 57 L 239.328125 50 L 239.328125 64 L 251.453125 71 Z M 251.453125 57 L 263.578125 50 L 251.453125 43 L 239.328125 50 "/>
<path style="fill-rule:evenodd;fill:rgb(100%,100%,100%);fill-opacity:1;stroke-width:1;stroke-linecap:round;stroke-linejoin:miter;stroke:rgb(74.509804%,74.509804%,74.509804%);stroke-opacity:1;stroke-miterlimit:10;" d="M 251.453125 57 L 260.113281 62 L 260.113281 52 L 251.453125 47 Z M 251.453125 57 L 242.792969 62 L 251.453125 67 L 260.113281 62 Z M 251.453125 57 L 251.453125 47 L 242.792969 52 L 242.792969 62 "/>
<path style="fill-rule:evenodd;fill:rgb(100%,100%,100%);fill-opacity:1;stroke-width:1;stroke-linecap:round;stroke-linejoin:miter;stroke:rgb(74.509804%,74.509804%,74.509804%);stroke-opacity:1;stroke-miterlimit:10;" d="M 350.179688 57 L 399.542969 85.5 L 399.542969 28.5 L 350.179688 0 Z M 350.179688 57 L 300.816406 85.5 L 350.179688 114 L 399.542969 85.5 Z M 350.179688 57 L 350.179688 0 L 300.816406 28.5 L 300.816406 85.5 "/>
<path style="fill-rule:evenodd;fill:rgb(100%,100%,100%);fill-opacity:1;stroke-width:1;stroke-linecap:round;stroke-linejoin:miter;stroke:rgb(74.509804%,74.509804%,74.509804%);stroke-opacity:1;stroke-miterlimit:10;" d="M 350.179688 57 L 350.179688 99 L 386.554688 78 L 386.554688 36 Z M 350.179688 57 L 313.808594 36 L 313.808594 78 L 350.179688 99 Z M 350.179688 57 L 386.554688 36 L 350.179688 15 L 313.808594 36 "/>
<path style="fill-rule:evenodd;fill:rgb(100%,100%,100%);fill-opacity:1;stroke-width:1;stroke-linecap:round;stroke-linejoin:miter;stroke:rgb(74.509804%,74.509804%,74.509804%);stroke-opacity:1;stroke-miterlimit:10;" d="M 350.179688 57 L 374.429688 71 L 374.429688 43 L 350.179688 29 Z M 350.179688 57 L 325.933594 71 L 350.179688 85 L 374.429688 71 Z M 350.179688 57 L 350.179688 29 L 325.933594 43 L 325.933594 71 "/>
<path style="fill-rule:evenodd;fill:rgb(100%,100%,100%);fill-opacity:1;stroke-width:1;stroke-linecap:round;stroke-linejoin:miter;stroke:rgb(74.509804%,74.509804%,74.509804%);stroke-opacity:1;stroke-miterlimit:10;" d="M 350.179688 57 L 350.179688 73 L 364.035156 65 L 364.035156 49 Z M 350.179688 57 L 336.324219 49 L 336.324219 65 L 350.179688 73 Z M 350.179688 57 L 364.035156 49 L 350.179688 41 L 336.324219 49 "/>
<path style="fill-rule:evenodd;fill:rgb(100%,100%,100%);fill-opacity:1;stroke-width:1;stroke-linecap:round;stroke-linejoin:miter;stroke:rgb(74.509804%,74.509804%,74.509804%);stroke-opacity:1;stroke-miterlimit:10;" d="M 448.90625 57 L 498.269531 85.5 L 498.269531 28.5 L 448.90625 0 Z M 448.90625 57 L 399.542969 85.5 L 448.90625 114 L 498.269531 85.5 Z M 448.90625 57 L 448.90625 0 L 399.542969 28.5 L 399.542969 85.5 "/>
<path style="fill-rule:evenodd;fill:rgb(100%,100%,100%);fill-opacity:1;stroke-width:1;stroke-linecap:round;stroke-linejoin:miter;stroke:rgb(74.509804%,74.509804%,74.509804%);stroke-opacity:1;stroke-miterlimit:10;" d="M 448.90625 57 L 448.90625 96 L 482.683594 76.5 L 482.683594 37.5 Z M 448.90625 57 L 415.132812 37.5 L 415.132812 76.5 L 448.90625 96 Z M 448.90625 57 L 482.683594 37.5 L 448.90625 18 L 415.132812 37.5 "/>
<path style="fill-rule:evenodd;fill:rgb(100%,100%,100%);fill-opacity:1;stroke-width:1;stroke-linecap:round;stroke-linejoin:miter;stroke:rgb(74.509804%,74.509804%,74.509804%);stroke-opacity:1;stroke-miterlimit:10;" d="M 448.90625 57 L 471.425781 70 L 471.425781 44 L 448.90625 31 Z M 448.90625 57 L 426.390625 70 L 448.90625 83 L 471.425781 70 Z M 448.90625 57 L 448.90625 31 L 426.390625 44 L 426.390625 70 "/>
<path style="fill-rule:evenodd;fill:rgb(100%,100%,100%);fill-opacity:1;stroke-width:1;stroke-linecap:round;stroke-linejoin:miter;stroke:rgb(74.509804%,74.509804%,74.509804%);stroke-opacity:1;stroke-miterlimit:10;" d="M 448.90625 57 L 448.90625 71 L 461.03125 64 L 461.03125 50 Z M 448.90625 57 L 436.785156 50 L 436.785156 64 L 448.90625 71 Z M 448.90625 57 L 461.03125 50 L 448.90625 43 L 436.785156 50 "/>
<path style="fill-rule:evenodd;fill:rgb(100%,100%,100%);fill-opacity:1;stroke-width:1;stroke-linecap:round;stroke-linejoin:miter;stroke:rgb(74.509804%,74.509804%,74.509804%);stroke-opacity:1;stroke-miterlimit:10;" d="M 103.363281 142.5 L 152.726562 171 L 152.726562 114 L 103.363281 85.5 Z M 103.363281 142.5 L 54 171 L 103.363281 199.5 L 152.726562 171 Z M 103.363281 142.5 L 103.363281 85.5 L 54 114 L 54 171 "/>
<path style="fill-rule:evenodd;fill:rgb(100%,100%,100%);fill-opacity:1;stroke-width:1;stroke-linecap:round;stroke-linejoin:miter;stroke:rgb(74.509804%,74.509804%,74.509804%);stroke-opacity:1;stroke-miterlimit:10;" d="M 103.363281 142.5 L 103.363281 180.5 L 136.273438 161.5 L 136.273438 123.5 Z M 103.363281 142.5 L 70.453125 123.5 L 70.453125 161.5 L 103.363281 180.5 Z M 103.363281 142.5 L 136.273438 123.5 L 103.363281 104.5 L 70.453125 123.5 "/>
<path style="fill-rule:evenodd;fill:rgb(100%,100%,100%);fill-opacity:1;stroke-width:1;stroke-linecap:round;stroke-linejoin:miter;stroke:rgb(74.509804%,74.509804%,74.509804%);stroke-opacity:1;stroke-miterlimit:10;" d="M 103.363281 142.5 L 122.414062 153.5 L 122.414062 131.5 L 103.363281 120.5 Z M 103.363281 142.5 L 84.3125 153.5 L 103.363281 164.5 L 122.414062 153.5 Z M 103.363281 142.5 L 103.363281 120.5 L 84.3125 131.5 L 84.3125 153.5 "/>
<path style="fill-rule:evenodd;fill:rgb(100%,100%,100%);fill-opacity:1;stroke-width:1;stroke-linecap:round;stroke-linejoin:miter;stroke:rgb(74.509804%,74.509804%,74.509804%);stroke-opacity:1;stroke-miterlimit:10;" d="M 103.363281 142.5 L 103.363281 154.5 L 113.753906 148.5 L 113.753906 136.5 Z M 103.363281 142.5 L 92.972656 136.5 L 92.972656 148.5 L 103.363281 154.5 Z M 103.363281 142.5 L 113.753906 136.5 L 103.363281 130.5 L 92.972656 136.5 "/>
<path style="fill-rule:evenodd;fill:rgb(100%,100%,100%);fill-opacity:1;stroke-width:1;stroke-linecap:round;stroke-linejoin:miter;stroke:rgb(74.509804%,74.509804%,74.509804%);stroke-opacity:1;stroke-miterlimit:10;" d="M 202.089844 142.5 L 202.089844 199.5 L 251.453125 171 L 251.453125 114 Z M 202.089844 142.5 L 152.726562 114 L 152.726562 171 L 202.089844 199.5 Z M 202.089844 142.5 L 251.453125 114 L 202.089844 85.5 L 152.726562 114 "/>
<path style="fill-rule:evenodd;fill:rgb(100%,100%,100%);fill-opacity:1;stroke-width:1;stroke-linecap:round;stroke-linejoin:miter;stroke:rgb(74.509804%,74.509804%,74.509804%);stroke-opacity:1;stroke-miterlimit:10;" d="M 202.089844 142.5 L 228.070312 157.5 L 228.070312 127.5 L 202.089844 112.5 Z M 202.089844 142.5 L 176.109375 157.5 L 202.089844 172.5 L 228.070312 157.5 Z M 202.089844 142.5 L 202.089844 112.5 L 176.109375 127.5 L 176.109375 157.5 "/>
<path style="fill-rule:evenodd;fill:rgb(100%,100%,100%);fill-opacity:1;stroke-width:1;stroke-linecap:round;stroke-linejoin:miter;stroke:rgb(74.509804%,74.509804%,74.509804%);stroke-opacity:1;stroke-miterlimit:10;" d="M 202.089844 142.5 L 202.089844 158.5 L 215.945312 150.5 L 215.945312 134.5 Z M 202.089844 142.5 L 188.234375 134.5 L 188.234375 150.5 L 202.089844 158.5 Z M 202.089844 142.5 L 215.945312 134.5 L 202.089844 126.5 L 188.234375 134.5 "/>
<path style="fill-rule:evenodd;fill:rgb(100%,100%,100%);fill-opacity:1;stroke-width:1;stroke-linecap:round;stroke-linejoin:miter;stroke:rgb(74.509804%,74.509804%,74.509804%);stroke-opacity:1;stroke-miterlimit:10;" d="M 202.089844 142.5 L 210.75 147.5 L 210.75 137.5 L 202.089844 132.5 Z M 202.089844 142.5 L 193.429688 147.5 L 202.089844 152.5 L 210.75 147.5 Z M 202.089844 142.5 L 202.089844 132.5 L 193.429688 137.5 L 193.429688 147.5 "/>
<path style="fill-rule:evenodd;fill:rgb(100%,100%,100%);fill-opacity:1;stroke-width:1;stroke-linecap:round;stroke-linejoin:miter;stroke:rgb(74.509804%,74.509804%,74.509804%);stroke-opacity:1;stroke-miterlimit:10;" d="M 300.816406 142.5 L 300.816406 199.5 L 350.179688 171 L 350.179688 114 Z M 300.816406 142.5 L 251.453125 114 L 251.453125 171 L 300.816406 199.5 Z M 300.816406 142.5 L 350.179688 114 L 300.816406 85.5 L 251.453125 114 "/>
<path style="fill-rule:evenodd;fill:rgb(100%,100%,100%);fill-opacity:1;stroke-width:1;stroke-linecap:round;stroke-linejoin:miter;stroke:rgb(74.509804%,74.509804%,74.509804%);stroke-opacity:1;stroke-miterlimit:10;" d="M 300.816406 142.5 L 338.921875 164.5 L 338.921875 120.5 L 300.816406 98.5 Z M 300.816406 142.5 L 262.710938 164.5 L 300.816406 186.5 L 338.921875 164.5 Z M 300.816406 142.5 L 300.816406 98.5 L 262.710938 120.5 L 262.710938 164.5 "/>
<path style="fill-rule:evenodd;fill:rgb(100%,100%,100%);fill-opacity:1;stroke-width:1;stroke-linecap:round;stroke-linejoin:miter;stroke:rgb(74.509804%,74.509804%,74.509804%);stroke-opacity:1;stroke-miterlimit:10;" d="M 300.816406 142.5 L 300.816406 170.5 L 325.066406 156.5 L 325.066406 128.5 Z M 300.816406 142.5 L 276.570312 128.5 L 276.570312 156.5 L 300.816406 170.5 Z M 300.816406 142.5 L 325.066406 128.5 L 300.816406 114.5 L 276.570312 128.5 "/>
<path style="fill-rule:evenodd;fill:rgb(100%,100%,100%);fill-opacity:1;stroke-width:1;stroke-linecap:round;stroke-linejoin:miter;stroke:rgb(74.509804%,74.509804%,74.509804%);stroke-opacity:1;stroke-miterlimit:10;" d="M 399.542969 142.5 L 448.90625 171 L 448.90625 114 L 399.542969 85.5 Z M 399.542969 142.5 L 350.179688 171 L 399.542969 199.5 L 448.90625 171 Z M 399.542969 142.5 L 399.542969 85.5 L 350.179688 114 L 350.179688 171 "/>
<path style="fill-rule:evenodd;fill:rgb(100%,100%,100%);fill-opacity:1;stroke-width:1;stroke-linecap:round;stroke-linejoin:miter;stroke:rgb(74.509804%,74.509804%,74.509804%);stroke-opacity:1;stroke-miterlimit:10;" d="M 399.542969 142.5 L 399.542969 189.5 L 440.246094 166 L 440.246094 119 Z M 399.542969 142.5 L 358.839844 119 L 358.839844 166 L 399.542969 189.5 Z M 399.542969 142.5 L 440.246094 119 L 399.542969 95.5 L 358.839844 119 "/>
<path style="fill-rule:evenodd;fill:rgb(100%,100%,100%);fill-opacity:1;stroke-width:1;stroke-linecap:round;stroke-linejoin:miter;stroke:rgb(74.509804%,74.509804%,74.509804%);stroke-opacity:1;stroke-miterlimit:10;" d="M 399.542969 142.5 L 425.523438 157.5 L 425.523438 127.5 L 399.542969 112.5 Z M 399.542969 142.5 L 373.5625 157.5 L 399.542969 172.5 L 425.523438 157.5 Z M 399.542969 142.5 L 399.542969 112.5 L 373.5625 127.5 L 373.5625 157.5 "/>
<path style="fill-rule:evenodd;fill:rgb(100%,100%,100%);fill-opacity:1;stroke-width:1;stroke-linecap:round;stroke-linejoin:miter;stroke:rgb(74.509804%,74.509804%,74.509804%);stroke-opacity:1;stroke-miterlimit:10;" d="M 399.542969 142.5 L 399.542969 159.5 L 414.265625 151 L 414.265625 134 Z M 399.542969 142.5 L 384.820312 134 L 384.820312 151 L 399.542969 159.5 Z M 399.542969 142.5 L 414.265625 134 L 399.542969 125.5 L 384.820312 134 "/>
<path style="fill-rule:evenodd;fill:rgb(100%,100%,100%);fill-opacity:1;stroke-width:1;stroke-linecap:round;stroke-linejoin:miter;stroke:rgb(74.509804%,74.509804%,74.509804%);stroke-opacity:1;stroke-miterlimit:10;" d="M 399.542969 142.5 L 408.203125 147.5 L 408.203125 137.5 L 399.542969 132.5 Z M 399.542969 142.5 L 390.882812 147.5 L 399.542969 152.5 L 408.203125 147.5 Z M 399.542969 142.5 L 399.542969 132.5 L 390.882812 137.5 L 390.882812 147.5 "/>
<path style="fill-rule:evenodd;fill:rgb(100%,100%,100%);fill-opacity:1;stroke-width:1;stroke-linecap:round;stroke-linejoin:miter;stroke:rgb(74.509804%,74.509804%,74.509804%);stroke-opacity:1;stroke-miterlimit:10;" d="M 152.726562 228 L 202.089844 256.5 L 202.089844 199.5 L 152.726562 171 Z M 152.726562 228 L 103.363281 256.5 L 152.726562 285 L 202.089844 256.5 Z M 152.726562 228 L 152.726562 171 L 103.363281 199.5 L 103.363281 256.5 "/>
<path style="fill-rule:evenodd;fill:rgb(100%,100%,100%);fill-opacity:1;stroke-width:1;stroke-linecap:round;stroke-linejoin:miter;stroke:rgb(74.509804%,74.509804%,74.509804%);stroke-opacity:1;stroke-miterlimit:10;" d="M 152.726562 228 L 152.726562 274 L 192.5625 251 L 192.5625 205 Z M 152.726562 228 L 112.890625 205 L 112.890625 251 L 152.726562 274 Z M 152.726562 228 L 192.5625 205 L 152.726562 182 L 112.890625 205 "/>
<path style="fill-rule:evenodd;fill:rgb(100%,100%,100%);fill-opacity:1;stroke-width:1;stroke-linecap:round;stroke-linejoin:miter;stroke:rgb(74.509804%,74.509804%,74.509804%);stroke-opacity:1;stroke-miterlimit:10;" d="M 152.726562 228 L 176.976562 242 L 176.976562 214 L 152.726562 200 Z M 152.726562 228 L 128.476562 242 L 152.726562 256 L 176.976562 242 Z M 152.726562 228 L 152.726562 200 L 128.476562 214 L 128.476562 242 "/>
<path style="fill-rule:evenodd;fill:rgb(100%,100%,100%);fill-opacity:1;stroke-width:1;stroke-linecap:round;stroke-linejoin:miter;stroke:rgb(74.509804%,74.509804%,74.509804%);stroke-opacity:1;stroke-miterlimit:10;" d="M 251.453125 228 L 300.816406 256.5 L 300.816406 199.5 L 251.453125 171 Z M 251.453125 228 L 202.089844 256.5 L 251.453125 285 L 300.816406 256.5 Z M 251.453125 228 L 251.453125 171 L 202.089844 199.5 L 202.089844 256.5 "/>
<path style="fill-rule:evenodd;fill:rgb(100%,100%,100%);fill-opacity:1;stroke-width:1;stroke-linecap:round;stroke-linejoin:miter;stroke:rgb(74.509804%,74.509804%,74.509804%);stroke-opacity:1;stroke-miterlimit:10;" d="M 251.453125 228 L 251.453125 271 L 288.691406 249.5 L 288.691406 206.5 Z M 251.453125 228 L 214.214844 206.5 L 214.214844 249.5 L 251.453125 271 Z M 251.453125 228 L 288.691406 206.5 L 251.453125 185 L 214.214844 206.5 "/>
<path style="fill-rule:evenodd;fill:rgb(100%,100%,100%);fill-opacity:1;stroke-width:1;stroke-linecap:round;stroke-linejoin:miter;stroke:rgb(74.509804%,74.509804%,74.509804%);stroke-opacity:1;stroke-miterlimit:10;" d="M 251.453125 228 L 280.03125 244.5 L 280.03125 211.5 L 251.453125 195 Z M 251.453125 228 L 222.875 244.5 L 251.453125 261 L 280.03125 244.5 Z M 251.453125 228 L 251.453125 195 L 222.875 211.5 L 222.875 244.5 "/>
<path style="fill-rule:evenodd;fill:rgb(100%,100%,100%);fill-opacity:1;stroke-width:1;stroke-linecap:round;stroke-linejoin:miter;stroke:rgb(74.509804%,74.509804%,74.509804%);stroke-opacity:1;stroke-miterlimit:10;" d="M 350.179688 228 L 399.542969 256.5 L 399.542969 199.5 L 350.179688 171 Z M 350.179688 228 L 300.816406 256.5 L 350.179688 285 L 399.542969 256.5 Z M 350.179688 228 L 350.179688 171 L 300.816406 199.5 L 300.816406 256.5 "/>
<path style="fill-rule:evenodd;fill:rgb(100%,100%,100%);fill-opacity:1;stroke-width:1;stroke-linecap:round;stroke-linejoin:miter;stroke:rgb(74.509804%,74.509804%,74.509804%);stroke-opacity:1;stroke-miterlimit:10;" d="M 350.179688 228 L 350.179688 260 L 377.894531 244 L 377.894531 212 Z M 350.179688 228 L 322.46875 212 L 322.46875 244 L 350.179688 260 Z M 350.179688 228 L 377.894531 212 L 350.179688 196 L 322.46875 212 "/>
<path style="fill-rule:evenodd;fill:rgb(100%,100%,100%);fill-opacity:1;stroke-width:1;stroke-linecap:round;stroke-linejoin:miter;stroke:rgb(74.509804%,74.509804%,74.509804%);stroke-opacity:1;stroke-miterlimit:10;" d="M 350.179688 228 L 367.5 238 L 367.5 218 L 350.179688 208 Z M 350.179688 228 L 332.859375 238 L 350.179688 248 L 367.5 238 Z M 350.179688 228 L 350.179688 208 L 332.859375 218 L 332.859375 238 "/>
<path style="fill-rule:evenodd;fill:rgb(100%,100%,100%);fill-opacity:1;stroke-width:1;stroke-linecap:round;stroke-linejoin:miter;stroke:rgb(74.509804%,74.509804%,74.509804%);stroke-opacity:1;stroke-miterlimit:10;" d="M 350.179688 228 L 350.179688 238 L 358.839844 233 L 358.839844 223 Z M 350.179688 228 L 341.519531 223 L 341.519531 233 L 350.179688 238 Z M 350.179688 228 L 358.839844 223 L 350.179688 218 L 341.519531 223 "/>
<path style="fill-rule:evenodd;fill:rgb(100%,100%,100%);fill-opacity:1;stroke-width:1;stroke-linecap:round;stroke-linejoin:miter;stroke:rgb(74.509804%,74.509804%,74.509804%);stroke-opacity:1;stroke-miterlimit:10;" d="M 350.179688 228 L 358.839844 233 L 358.839844 223 L 350.179688 218 Z M 350.179688 228 L 341.519531 233 L 350.179688 238 L 358.839844 233 Z M 350.179688 228 L 350.179688 218 L 341.519531 223 L 341.519531 233 "/>
</g>
</svg>
