<?xml version="1.0" encoding="UTF-8"?>
<svg xmlns="http://www.w3.org/2000/svg" xmlns:xlink="http://www.w3.org/1999/xlink" width="500pt" height="500pt" viewBox="0 0 500 500" version="1.1">
<g id="surface20">
<path style="fill-rule:evenodd;fill:rgb(100%,100%,100%);fill-opacity:1;stroke-width:1;stroke-linecap:round;stroke-linejoin:miter;stroke:rgb(74.509804%,74.509804%,74.509804%);stroke-opacity:1;stroke-miterlimit:10;" d="M 54 57 L 54 114 L 103.363281 85.5 L 103.363281 28.5 Z M 54 57 L 4.636719 28.5 L 4.636719 85.5 L 54 114 Z M 54 57 L 103.363281 28.5 L 54 0 L 4.636719 28.5 "/>
<path style="fill-rule:evenodd;fill:rgb(100%,100%,100%);fill-opacity:1;stroke-width:1;stroke-linecap:round;stroke-linejoin:miter;stroke:rgb(74.509804%,74.509804%,74.509804%);stroke-opacity:1;stroke-miterlimit:10;" d="M 54 57 L 93.835938 80 L 93.835938 34 L 54 11 Z M 54 57 L 14.164062 80 L 54 103 L 93.835938 80 Z M 54 57 L 54 11 L 14.164062 34 L 14.164062 80 "/>
<path style="fill-rule:evenodd;fill:rgb(100%,100%,100%);fill-opacity:1;stroke-width:1;stroke-linecap:round;stroke-linejoin:miter;stroke:rgb(74.509804%,74.509804%,74.509804%);stroke-opacity:1;stroke-miterlimit:10;" d="M 54 57 L 54 81 L 74.785156 69 L 74.785156 45 Z M 54 57 L 33.214844 45 L 33.214844 69 L 54 81 Z M 54 57 L 74.785156 45 L 54 33 L 33.214844 45 "/>
<path style="fill-rule:evenodd;fill:rgb(100%,100%,100%);fill-opacity:1;stroke-width:1;stroke-linecap:round;stroke-linejoin:miter;stroke:rgb(74.509804%,74.509804%,74.509804%);stroke-opacity:1;stroke-miterlimit:10;" d="M 54 57 L 66.125 64 L 66.125 50 L 54 43 Z M 54 57 L 41.875 64 L 54 71 L 66.125 64 Z M 54 57 L 54 43 L 41.875 50 L 41.875 64 "/>
<path style="fill-rule:evenodd;fill:rgb(100%,100%,100%);fill-opacity:1;stroke-width:1;stroke-linecap:round;stroke-linejoin:miter;stroke:rgb(74.509804%,74.509804%,74.509804%);stroke-opacity:1;stroke-miterlimit:10;" d="M 152.726562 57 L 152.726562 114 L 202.089844 85.5 L 202.089844 28.5 Z M 152.726562 57 L 103.363281 28.5 L 103.363281 85.5 L 152.726562 114 Z M 152.726562 57 L 202.089844 28.5 L 152.726562 0 L 103.363281 28.5 "/>
<path style="fill-rule:evenodd;fill:rgb(100%,100%,100%);fill-opacity:1;stroke-width:1;stroke-linecap:round;stroke-linejoin:miter;stroke:rgb(74.509804%,74.509804%,74.509804%);stroke-opacity:1;stroke-miterlimit:10;" d="M 152.726562 57 L 184.769531 75.5 L 184.769531 38.5 L 152.726562 20 Z M 152.726562 57 L 120.683594 75.5 L 152.726562 94 L 184.769531 75.5 Z M 152.726562 57 L 152.726562 20 L 120.683594 38.5 L 120.683594 75.5 "/>
<path style="fill-rule:evenodd;fill:rgb(100%,100%,100%);fill-opacity:1;stroke-width:1;stroke-linecap:round;stroke-linejoin:miter;stroke:rgb(74.509804%,74.509804%,74.509804%);stroke-opacity:1;stroke-miterlimit:10;" d="M 152.726562 57 L 152.726562 79 L 171.78125 68 L 171.78125 46 Z M 152.726562 57 L 133.675781 46 L 133.675781 68 L 152.726562 79 Z M 152.726562 57 L 171.78125 46 L 152.726562 35 L 133.675781 46 "/>
<path style="fill-rule:evenodd;fill:rgb(100%,100%,100%);fill-opacity:1;stroke-width:1;stroke-linecap:round;stroke-linejoin:miter;stroke:rgb(74.509804%,74.509804%,74.509804%);stroke-opacity:1;stroke-miterlimit:10;" d="M 251.453125 57 L 300.816406 85.5 L 300.816406 28.5 L 251.453125 0 Z M 251.453125 57 L 202.089844 85.5 L 251.453125 114 L 300.816406 85.5 Z M 251.453125 57 L 251.453125 0 L 202.089844 28.5 L 202.089844 85.5 "/>
<path style="fill-rule:evenodd;fill:rgb(100%,100%,100%);fill-opacity:1;stroke-width:1;stroke-linecap:round;stroke-linejoin:miter;stroke:rgb(74.509804%,74.509804%,74.509804%);stroke-opacity:1;stroke-miterlimit:10;" d="M 251.453125 57 L 251.453125 90 L 280.03125 73.5 L 280.03125 40.5 Z M 251.453125 57 L 222.875 40.5 L 222.875 73.5 L 251.453125 90 Z M 251.453125 57 L 280.03125 40.5 L 251.453125 24 L 222.875 40.5 "/>
<path style="fill-rule:evenodd;fill:rgb(100%,100%,100%);fill-opacity:1;stroke-width:1;stroke-linecap:round;stroke-linejoin:miter;stroke:rgb(74.509804%,74.509804%,74.509804%);stroke-opacity:1;stroke-miterlimit:10;" d="M 251.453125 57 L 271.371094 68.5 L 271.371094 45.5 L 251.453125 34 Z M 251.453125 57 L 231.535156 68.5 L 251.453125 80 L 271.371094 68.5 Z M 251.453125 57 L 251.453125 34 L 231.535156 45.5 L 231.535156 68.5 "/>
<path style="fill-rule:evenodd;fill:rgb(100%,100%,100%);fill-opacity:1;stroke-width:1;stroke-linecap:round;stroke-linejoin:miter;stroke:rgb(74.509804%,74.509804%,74.509804%);stroke-opacity:1;stroke-miterlimit:10;" d="M 350.179688 57 L 399.542969 85.5 L 399.542969 28.5 L 350.179688 0 Z M 350.179688 57 L 300.816406 85.5 L 350.179688 114 L 399.542969 85.5 Z M 350.179688 57 L 350.179688 0 L 300.816406 28.5 L 300.816406 85.5 "/>
<path style="fill-rule:evenodd;fill:rgb(100%,100%,100%);fill-opacity:1;stroke-width:1;stroke-linecap:round;stroke-linejoin:miter;stroke:rgb(74.509804%,74.509804%,74.509804%);stroke-opacity:1;stroke-miterlimit:10;" d="M 350.179688 57 L 350.179688 90 L 378.757812 73.5 L 378.757812 40.5 Z M 350.179688 57 L 321.601562 40.5 L 321.601562 73.5 L 350.179688 90 Z M 350.179688 57 L 378.757812 40.5 L 350.179688 24 L 321.601562 40.5 "/>
<path style="fill-rule:evenodd;fill:rgb(100%,100%,100%);fill-opacity:1;stroke-width:1;stroke-linecap:round;stroke-linejoin:miter;stroke:rgb(74.509804%,74.509804%,74.509804%);stroke-opacity:1;stroke-miterlimit:10;" d="M 350.179688 57 L 367.5 67 L 367.5 47 L 350.179688 37 Z M 350.179688 57 L 332.859375 67 L 350.179688 77 L 367.5 67 Z M 350.179688 57 L 350.179688 37 L 332.859375 47 L 332.859375 67 "/>
<path style="fill-rule:evenodd;fill:rgb(100%,100%,100%);fill-opacity:1;stroke-width:1;stroke-linecap:round;stroke-linejoin:miter;stroke:rgb(74.509804%,74.509804%,74.509804%);stroke-opacity:1;stroke-miterlimit:10;" d="M 350.179688 57 L 350.179688 67 L 358.839844 62 L 358.839844 52 Z M 350.179688 57 L 341.519531 52 L 341.519531 62 L 350.179688 67 Z M 350.179688 57 L 358.839844 52 L 350.179688 47 L 341.519531 52 "/>
<path style="fill-rule:evenodd;fill:rgb(100%,100%,100%);fill-opacity:1;stroke-width:1;stroke-linecap:round;stroke-linejoin:miter;stroke:rgb(74.509804%,74.509804%,74.509804%);stroke-opacity:1;stroke-miterlimit:10;" d="M 350.179688 57 L 358.839844 62 L 358.839844 52 L 350.179688 47 Z M 350.179688 57 L 341.519531 62 L 350.179688 67 L 358.839844 62 Z M 350.179688 57 L 350.179688 47 L 341.519531 52 L 341.519531 62 "/>
<path style="fill-rule:evenodd;fill:rgb(100%,100%,100%);fill-opacity:1;stroke-width:1;stroke-linecap:round;stroke-linejoin:miter;stroke:rgb(74.509804%,74.509804%,74.509804%);stroke-opacity:1;stroke-miterlimit:10;" d="M 448.90625 57 L 448.90625 114 L 498.269531 85.5 L 498.269531 28.5 Z M 448.90625 57 L 399.542969 28.5 L 399.542969 85.5 L 448.90625 114 Z M 448.90625 57 L 498.269531 28.5 L 448.90625 0 L 399.542969 28.5 "/>
<path style="fill-rule:evenodd;fill:rgb(100%,100%,100%);fill-opacity:1;stroke-width:1;stroke-linecap:round;stroke-linejoin:miter;stroke:rgb(74.509804%,74.509804%,74.509804%);stroke-opacity:1;stroke-miterlimit:10;" d="M 448.90625 57 L 485.28125 78 L 485.28125 36 L 448.90625 15 Z M 448.90625 57 L 412.535156 78 L 448.90625 99 L 485.28125 78 Z M 448.90625 57 L 448.90625 15 L 412.535156 36 L 412.535156 78 "/>
<path style="fill-rule:evenodd;fill:rgb(100%,100%,100%);fill-opacity:1;stroke-width:1;stroke-linecap:round;stroke-linejoin:miter;stroke:rgb(74.509804%,74.509804%,74.509804%);stroke-opacity:1;stroke-miterlimit:10;" d="M 448.90625 57 L 448.90625 88 L 475.753906 72.5 L 475.753906 41.5 Z M 448.90625 57 L 422.0625 41.5 L 422.0625 72.5 L 448.90625 88 Z M 448.90625 57 L 475.753906 41.5 L 448.90625 26 L 422.0625 41.5 "/>
<path style="fill-rule:evenodd;fill:rgb(100%,100%,100%);fill-opacity:1;stroke-width:1;stroke-linecap:round;stroke-linejoin:miter;stroke:rgb(74.509804%,74.509804%,74.509804%);stroke-opacity:1;stroke-miterlimit:10;" d="M 103.363281 142.5 L 152.726562 171 L 152.726562 114 L 103.363281 85.5 Z M 103.363281 142.5 L 54 171 L 103.363281 199.5 L 152.726562 171 Z M 103.363281 142.5 L 103.363281 85.5 L 54 114 L 54 171 "/>
<path style="fill-rule:evenodd;fill:rgb(100%,100%,100%);fill-opacity:1;stroke-width:1;stroke-linecap:round;stroke-linejoin:miter;stroke:rgb(74.509804%,74.509804%,74.509804%);stroke-opacity:1;stroke-miterlimit:10;" d="M 103.363281 142.5 L 103.363281 176.5 L 132.808594 159.5 L 132.808594 125.5 Z M 103.363281 142.5 L 73.917969 125.5 L 73.917969 159.5 L 103.363281 176.5 Z M 103.363281 142.5 L 132.808594 125.5 L 103.363281 108.5 L 73.917969 125.5 "/>
<path style="fill-rule:evenodd;fill:rgb(100%,100%,100%);fill-opacity:1;stroke-width:1;stroke-linecap:round;stroke-linejoin:miter;stroke:rgb(74.509804%,74.509804%,74.509804%);stroke-opacity:1;stroke-miterlimit:10;" d="M 103.363281 142.5 L 121.550781 153 L 121.550781 132 L 103.363281 121.5 Z M 103.363281 142.5 L 85.175781 153 L 103.363281 163.5 L 121.550781 153 Z M 103.363281 142.5 L 103.363281 121.5 L 85.175781 132 L 85.175781 153 "/>
<path style="fill-rule:evenodd;fill:rgb(100%,100%,100%);fill-opacity:1;stroke-width:1;stroke-linecap:round;stroke-linejoin:miter;stroke:rgb(74.509804%,74.509804%,74.509804%);stroke-opacity:1;stroke-miterlimit:10;" d="M 103.363281 142.5 L 103.363281 153.5 L 112.890625 148 L 112.890625 137 Z M 103.363281 142.5 L 93.835938 137 L 93.835938 148 L 103.363281 153.5 Z M 103.363281 142.5 L 112.890625 137 L 103.363281 131.5 L 93.835938 137 "/>
<path style="fill-rule:evenodd;fill:rgb(100%,100%,100%);fill-opacity:1;stroke-width:1;stroke-linecap:round;stroke-linejoin:miter;stroke:rgb(74.509804%,74.509804%,74.509804%);stroke-opacity:1;stroke-miterlimit:10;" d="M 103.363281 142.5 L 112.023438 147.5 L 112.023438 137.5 L 103.363281 132.5 Z M 103.363281 142.5 L 94.703125 147.5 L 103.363281 152.5 L 112.023438 147.5 Z M 103.363281 142.5 L 103.363281 132.5 L 94.703125 137.5 L 94.703125 147.5 "/>
<path style="fill-rule:evenodd;fill:rgb(100%,100%,100%);fill-opacity:1;stroke-width:1;stroke-linecap:round;stroke-linejoin:miter;stroke:rgb(74.509804%,74.509804%,74.509804%);stroke-opacity:1;stroke-miterlimit:10;" d="M 202.089844 142.5 L 202.089844 199.5 L 251.453125 171 L 251.453125 114 Z M 202.089844 142.5 L 152.726562 114 L 152.726562 171 L 202.089844 199.5 Z M 202.089844 142.5 L 251.453125 114 L 202.089844 85.5 L 152.726562 114 "/>
<path style="fill-rule:evenodd;fill:rgb(100%,100%,100%);fill-opacity:1;stroke-width:1;stroke-linecap:round;stroke-linejoin:miter;stroke:rgb(74.509804%,74.509804%,74.509804%);stroke-opacity:1;stroke-miterlimit:10;" d="M 202.089844 142.5 L 229.804688 158.5 L 229.804688 126.5 L 202.089844 110.5 Z M 202.089844 142.5 L 174.378906 158.5 L 202.089844 174.5 L 229.804688 158.5 Z M 202.089844 142.5 L 202.089844 110.5 L 174.378906 126.5 L 174.378906 158.5 "/>
<path style="fill-rule:evenodd;fill:rgb(100%,100%,100%);fill-opacity:1;stroke-width:1;stroke-linecap:round;stroke-linejoin:miter;stroke:rgb(74.509804%,74.509804%,74.509804%);stroke-opacity:1;stroke-miterlimit:10;" d="M 202.089844 142.5 L 202.089844 159.5 L 216.8125 151 L 216.8125 134 Z M 202.089844 142.5 L 187.367188 134 L 187.367188 151 L 202.089844 159.5 Z M 202.089844 142.5 L 216.8125 134 L 202.089844 125.5 L 187.367188 134 "/>
<path style="fill-rule:evenodd;fill:rgb(100%,100%,100%);fill-opacity:1;stroke-width:1;stroke-linecap:round;stroke-linejoin:miter;stroke:rgb(74.509804%,74.509804%,74.509804%);stroke-opacity:1;stroke-miterlimit:10;" d="M 202.089844 142.5 L 210.75 147.5 L 210.75 137.5 L 202.089844 132.5 Z M 202.089844 142.5 L 193.429688 147.5 L 202.089844 152.5 L 210.75 147.5 Z M 202.089844 142.5 L 202.089844 132.5 L 193.429688 137.5 L 193.429688 147.5 "/>
<path style="fill-rule:evenodd;fill:rgb(100%,100%,100%);fill-opacity:1;stroke-width:1;stroke-linecap:round;stroke-linejoin:miter;stroke:rgb(74.509804%,74.509804%,74.509804%);stroke-opacity:1;stroke-miterlimit:10;" d="M 202.089844 142.5 L 202.089844 152.5 L 210.75 147.5 L 210.75 137.5 Z M 202.089844 142.5 L 193.429688 137.5 L 193.429688 147.5 L 202.089844 152.5 Z M 202.089844 142.5 L 210.75 137.5 L 202.089844 132.5 L 193.429688 137.5 "/>
<path style="fill-rule:evenodd;fill:rgb(100%,100%,100%);fill-opacity:1;stroke-width:1;stroke-linecap:round;stroke-linejoin:miter;stroke:rgb(74.509804%,74.509804%,74.509804%);stroke-opacity:1;stroke-miterlimit:10;" d="M 300.816406 142.5 L 350.179688 171 L 350.179688 114 L 300.816406 85.5 Z M 300.816406 142.5 L 251.453125 171 L 300.816406 199.5 L 350.179688 171 Z M 300.816406 142.5 L 300.816406 85.5 L 251.453125 114 L 251.453125 171 "/>
<path style="fill-rule:evenodd;fill:rgb(100%,100%,100%);fill-opacity:1;stroke-width:1;stroke-linecap:round;stroke-linejoin:miter;stroke:rgb(74.509804%,74.509804%,74.509804%);stroke-opacity:1;stroke-miterlimit:10;" d="M 300.816406 142.5 L 300.816406 183.5 L 336.324219 163 L 336.324219 122 Z M 300.816406 142.5 L 265.308594 122 L 265.308594 163 L 300.816406 183.5 Z M 300.816406 142.5 L 336.324219 122 L 300.816406 101.5 L 265.308594 122 "/>
<path style="fill-rule:evenodd;fill:rgb(100%,100%,100%);fill-opacity:1;stroke-width:1;stroke-linecap:round;stroke-linejoin:miter;stroke:rgb(74.509804%,74.509804%,74.509804%);stroke-opacity:1;stroke-miterlimit:10;" d="M 300.816406 142.5 L 326.796875 157.5 L 326.796875 127.5 L 300.816406 112.5 Z M 300.816406 142.5 L 274.835938 157.5 L 300.816406 172.5 L 326.796875 157.5 Z M 300.816406 142.5 L 300.816406 112.5 L 274.835938 127.5 L 274.835938 157.5 "/>
<path style="fill-rule:evenodd;fill:rgb(100%,100%,100%);fill-opacity:1;stroke-width:1;stroke-linecap:round;stroke-linejoin:miter;stroke:rgb(74.509804%,74.509804%,74.509804%);stroke-opacity:1;stroke-miterlimit:10;" d="M 300.816406 142.5 L 300.816406 161.5 L 317.273438 152 L 317.273438 133 Z M 300.816406 142.5 L 284.363281 133 L 284.363281 152 L 300.816406 161.5 Z M 300.816406 142.5 L 317.273438 133 L 300.816406 123.5 L 284.363281 133 "/>
<path style="fill-rule:evenodd;fill:rgb(100%,100%,100%);fill-opacity:1;stroke-width:1;stroke-linecap:round;stroke-linejoin:miter;stroke:rgb(74.509804%,74.509804%,74.509804%);stroke-opacity:1;stroke-miterlimit:10;" d="M 300.816406 142.5 L 309.476562 147.5 L 309.476562 137.5 L 300.816406 132.5 Z M 300.816406 142.5 L 292.15625 147.5 L 300.816406 152.5 L 309.476562 147.5 Z M 300.816406 142.5 L 300.816406 132.5 L 292.15625 137.5 L 292.15625 147.5 "/>
<path style="fill-rule:evenodd;fill:rgb(100%,100%,100%);fill-opacity:1;stroke-width:1;stroke-linecap:round;stroke-linejoin:miter;stroke:rgb(74.509804%,74.509804%,74.509804%);stroke-opacity:1;stroke-miterlimit:10;" d="M 399.542969 142.5 L 448.90625 171 L 448.90625 114 L 399.542969 85.5 Z M 399.542969 142.5 L 350.179688 171 L 399.542969 199.5 L 448.90625 171 Z M 399.542969 142.5 L 399.542969 85.5 L 350.179688 114 L 350.179688 171 "/>
<path style="fill-rule:evenodd;fill:rgb(100%,100%,100%);fill-opacity:1;stroke-width:1;stroke-linecap:round;stroke-linejoin:miter;stroke:rgb(74.509804%,74.509804%,74.509804%);stroke-opacity:1;stroke-miterlimit:10;" d="M 399.542969 142.5 L 399.542969 175.5 L 428.121094 159 L 428.121094 126 Z M 399.542969 142.5 L 370.964844 126 L 370.964844 159 L 399.542969 175.5 Z M 399.542969 142.5 L 428.121094 126 L 399.542969 109.5 L 370.964844 126 "/>
<path style="fill-rule:evenodd;fill:rgb(100%,100%,100%);fill-opacity:1;stroke-width:1;stroke-linecap:round;stroke-linejoin:miter;stroke:rgb(74.509804%,74.509804%,74.509804%);stroke-opacity:1;stroke-miterlimit:10;" d="M 399.542969 142.5 L 417.730469 153 L 417.730469 132 L 399.542969 121.5 Z M 399.542969 142.5 L 381.359375 153 L 399.542969 163.5 L 417.730469 153 Z M 399.542969 142.5 L 399.542969 121.5 L 381.359375 132 L 381.359375 153 "/>
<path style="fill-rule:evenodd;fill:rgb(100%,100%,100%);fill-opacity:1;stroke-width:1;stroke-linecap:round;stroke-linejoin:miter;stroke:rgb(74.509804%,74.509804%,74.509804%);stroke-opacity:1;stroke-miterlimit:10;" d="M 399.542969 142.5 L 399.542969 153.5 L 409.070312 148 L 409.070312 137 Z M 399.542969 142.5 L 390.019531 137 L 390.019531 148 L 399.542969 153.5 Z M 399.542969 142.5 L 409.070312 137 L 399.542969 131.5 L 390.019531 137 "/>
<path style="fill-rule:evenodd;fill:rgb(100%,100%,100%);fill-opacity:1;stroke-width:1;stroke-linecap:round;stroke-linejoin:miter;stroke:rgb(74.509804%,74.509804%,74.509804%);stroke-opacity:1;stroke-miterlimit:10;" d="M 399.542969 142.5 L 408.203125 147.5 L 408.203125 137.5 L 399.542969 132.5 Z M 399.542969 142.5 L 390.882812 147.5 L 399.542969 152.5 L 408.203125 147.5 Z M 399.542969 142.5 L 399.542969 132.5 L 390.882812 137.5 L 390.882812 147.5 "/>
<path style="fill-rule:evenodd;fill:rgb(100%,100%,100%);fill-opacity:1;stroke-width:1;stroke-linecap:round;stroke-linejoin:miter;stroke:rgb(74.509804%,74.509804%,74.509804%);stroke-opacity:1;stroke-miterlimit:10;" d="M 152.726562 228 L 202.089844 256.5 L 202.089844 199.5 L 152.726562 171 Z M 152.726562 228 L 103.363281 256.5 L 152.726562 285 L 202.089844 256.5 Z M 152.726562 228 L 152.726562 171 L 103.363281 199.5 L 103.363281 256.5 "/>
<path style="fill-rule:evenodd;fill:rgb(100%,100%,100%);fill-opacity:1;stroke-width:1;stroke-linecap:round;stroke-linejoin:miter;stroke:rgb(74.509804%,74.509804%,74.509804%);stroke-opacity:1;stroke-miterlimit:10;" d="M 152.726562 228 L 152.726562 270 L 189.101562 249 L 189.101562 207 Z M 152.726562 228 L 116.355469 207 L 116.355469 249 L 152.726562 270 Z M 152.726562 228 L 189.101562 207 L 152.726562 186 L 116.355469 207 "/>
<path style="fill-rule:evenodd;fill:rgb(100%,100%,100%);fill-opacity:1;stroke-width:1;stroke-linecap:round;stroke-linejoin:miter;stroke:rgb(74.509804%,74.509804%,74.509804%);stroke-opacity:1;stroke-miterlimit:10;" d="M 152.726562 228 L 173.511719 240 L 173.511719 216 L 152.726562 204 Z M 152.726562 228 L 131.941406 240 L 152.726562 252 L 173.511719 240 Z M 152.726562 228 L 152.726562 204 L 131.941406 216 L 131.941406 240 "/>
<path style="fill-rule:evenodd;fill:rgb(100%,100%,100%);fill-opacity:1;stroke-width:1;stroke-linecap:round;stroke-linejoin:miter;stroke:rgb(74.509804%,74.509804%,74.509804%);stroke-opacity:1;stroke-miterlimit:10;" d="M 251.453125 228 L 300.816406 256.5 L 300.816406 199.5 L 251.453125 171 Z M 251.453125 228 L 202.089844 256.5 L 251.453125 285 L 300.816406 256.5 Z M 251.453125 228 L 251.453125 171 L 202.089844 199.5 L 202.089844 256.5 "/>
<path style="fill-rule:evenodd;fill:rgb(100%,100%,100%);fill-opacity:1;stroke-width:1;stroke-linecap:round;stroke-linejoin:miter;stroke:rgb(74.509804%,74.509804%,74.509804%);stroke-opacity:1;stroke-miterlimit:10;" d="M 251.453125 228 L 251.453125 268 L 286.09375 248 L 286.09375 208 Z M 251.453125 228 L 216.8125 208 L 216.8125 248 L 251.453125 268 Z M 251.453125 228 L 286.09375 208 L 251.453125 188 L 216.8125 208 "/>
<path style="fill-rule:evenodd;fill:rgb(100%,100%,100%);fill-opacity:1;stroke-width:1;stroke-linecap:round;stroke-linejoin:miter;stroke:rgb(74.509804%,74.509804%,74.509804%);stroke-opacity:1;stroke-miterlimit:10;" d="M 251.453125 228 L 273.105469 240.5 L 273.105469 215.5 L 251.453125 203 Z M 251.453125 228 L 229.804688 240.5 L 251.453125 253 L 273.105469 240.5 Z M 251.453125 228 L 251.453125 203 L 229.804688 215.5 L 229.804688 240.5 "/>
<path style="fill-rule:evenodd;fill:rgb(100%,100%,100%);fill-opacity:1;stroke-width:1;stroke-linecap:round;stroke-linejoin:miter;stroke:rgb(74.509804%,74.509804%,74.509804%);stroke-opacity:1;stroke-miterlimit:10;" d="M 251.453125 228 L 251.453125 242 L 263.578125 235 L 263.578125 221 Z M 251.453125 228 L 239.328125 221 L 239.328125 235 L 251.453125 242 Z M 251.453125 228 L 263.578125 221 L 251.453125 214 L 239.328125 221 "/>
<path style="fill-rule:evenodd;fill:rgb(100%,100%,100%);fill-opacity:1;stroke-width:1;stroke-linecap:round;stroke-linejoin:miter;stroke:rgb(74.509804%,74.509804%,74.509804%);stroke-opacity:1;stroke-miterlimit:10;" d="M 350.179688 228 L 350.179688 285 L 399.542969 256.5 L 399.542969 199.5 Z M 350.179688 228 L 300.816406 199.5 L 300.816406 256.5 L 350.179688 285 Z M 350.179688 228 L 399.542969 199.5 L 350.179688 171 L 300.816406 199.5 "/>
<path style="fill-rule:evenodd;fill:rgb(100%,100%,100%);fill-opacity:1;stroke-width:1;stroke-linecap:round;stroke-linejoin:miter;stroke:rgb(74.509804%,74.509804%,74.509804%);stroke-opacity:1;stroke-miterlimit:10;" d="M 350.179688 228 L 377.894531 244 L 377.894531 212 L 350.179688 196 Z M 350.179688 228 L 322.46875 244 L 350.179688 260 L 377.894531 244 Z M 350.179688 228 L 350.179688 196 L 322.46875 212 L 322.46875 244 "/>
<path style="fill-rule:evenodd;fill:rgb(100%,100%,100%);fill-opacity:1;stroke-width:1;stroke-linecap:round;stroke-linejoin:miter;stroke:rgb(74.509804%,74.509804%,74.509804%);stroke-opacity:1;stroke-miterlimit:10;" d="M 350.179688 228 L 350.179688 246 L 365.769531 237 L 365.769531 219 Z M 350.179688 228 L 334.59375 219 L 334.59375 237 L 350.179688 246 Z M 350.179688 228 L 365.769531 219 L 350.179688 210 L 334.59375 219 "/>
</g>
</svg>
