<?xml version="1.0" encoding="UTF-8"?>
<svg xmlns="http://www.w3.org/2000/svg" xmlns:xlink="http://www.w3.org/1999/xlink" width="500pt" height="500pt" viewBox="0 0 500 500" version="1.1">
<g id="surface20">
<path style="fill-rule:evenodd;fill:rgb(100%,100%,100%);fill-opacity:1;stroke-width:1;stroke-linecap:round;stroke-linejoin:miter;stroke:rgb(74.509804%,74.509804%,74.509804%);stroke-opacity:1;stroke-miterlimit:10;" d="M 54 57 L 103.363281 85.5 L 103.363281 28.5 L 54 0 Z M 54 57 L 4.636719 85.5 L 54 114 L 103.363281 85.5 Z M 54 57 L 54 0 L 4.636719 28.5 L 4.636719 85.5 "/>
<path style="fill-rule:evenodd;fill:rgb(100%,100%,100%);fill-opacity:1;stroke-width:1;stroke-linecap:round;stroke-linejoin:miter;stroke:rgb(74.509804%,74.509804%,74.509804%);stroke-opacity:1;stroke-miterlimit:10;" d="M 54 57 L 54 91 L 83.445312 74 L 83.445312 40 Z M 54 57 L 24.554688 40 L 24.554688 74 L 54 91 Z M 54 57 L 83.445312 40 L 54 23 L 24.554688 40 "/>
<path style="fill-rule:evenodd;fill:rgb(100%,100%,100%);fill-opacity:1;stroke-width:1;stroke-linecap:round;stroke-linejoin:miter;stroke:rgb(74.509804%,74.509804%,74.509804%);stroke-opacity:1;stroke-miterlimit:10;" d="M 54 57 L 70.453125 66.5 L 70.453125 47.5 L 54 38 Z M 54 57 L 37.546875 66.5 L 54 76 L 70.453125 66.5 Z M 54 57 L 54 38 L 37.546875 47.5 L 37.546875 66.5 "/>
<path style="fill-rule:evenodd;fill:rgb(100%,100%,100%);fill-opacity:1;stroke-width:1;stroke-linecap:round;stroke-linejoin:miter;stroke:rgb(74.509804%,74.509804%,74.509804%);stroke-opacity:1;stroke-miterlimit:10;" d="M 54 57 L 54 67 L 62.660156 62 L 62.660156 52 Z M 54 57 L 45.339844 52 L 45.339844 62 L 54 67 Z M 54 57 L 62.660156 52 L 54 47 L 45.339844 52 "/>
<path style="fill-rule:evenodd;fill:rgb(100%,100%,100%);fill-opacity:1;stroke-width:1;stroke-linecap:round;stroke-linejoin:miter;stroke:rgb(74.509804%,74.509804%,74.509804%);stroke-opacity:1;stroke-miterlimit:10;" d="M 152.726562 57 L 152.726562 114 L 202.089844 85.5 L 202.089844 28.5 Z M 152.726562 57 L 103.363281 28.5 L 103.363281 85.5 L 152.726562 114 Z M 152.726562 57 L 202.089844 28.5 L 152.726562 0 L 103.363281 28.5 "/>
<path style="fill-rule:evenodd;fill:rgb(100%,100%,100%);fill-opacity:1;stroke-width:1;stroke-linecap:round;stroke-linejoin:miter;stroke:rgb(74.509804%,74.509804%,74.509804%);stroke-opacity:1;stroke-miterlimit:10;" d="M 152.726562 57 L 182.171875 74 L 182.171875 40 L 152.726562 23 Z M 152.726562 57 L 123.28125 74 L 152.726562 91 L 182.171875 74 Z M 152.726562 57 L 152.726562 23 L 123.28125 40 L 123.28125 74 "/>
<path style="fill-rule:evenodd;fill:rgb(100%,100%,100%);fill-opacity:1;stroke-width:1;stroke-linecap:round;stroke-linejoin:miter;stroke:rgb(74.509804%,74.509804%,74.509804%);stroke-opacity:1;stroke-miterlimit:10;" d="M 152.726562 57 L 152.726562 81 L 173.511719 69 L 173.511719 45 Z M 152.726562 57 L 131.941406 45 L 131.941406 69 L 152.726562 81 Z M 152.726562 57 L 173.511719 45 L 152.726562 33 L 131.941406 45 "/>
<path style="fill-rule:evenodd;fill:rgb(100%,100%,100%);fill-opacity:1;stroke-width:1;stroke-linecap:round;stroke-linejoin:miter;stroke:rgb(74.509804%,74.509804%,74.509804%);stroke-opacity:1;stroke-miterlimit:10;" d="M 251.453125 57 L 251.453125 114 L 300.816406 85.5 L 300.816406 28.5 Z M 251.453125 57 L 202.089844 28.5 L 202.089844 85.5 L 251.453125 114 Z M 251.453125 57 L 300.816406 28.5 L 251.453125 0 L 202.089844 28.5 "/>
<path style="fill-rule:evenodd;fill:rgb(100%,100%,100%);fill-opacity:1;stroke-width:1;stroke-linecap:round;stroke-linejoin:miter;stroke:rgb(74.509804%,74.509804%,74.509804%);stroke-opacity:1;stroke-miterlimit:10;" d="M 251.453125 57 L 285.230469 76.5 L 285.230469 37.5 L 251.453125 18 Z M 251.453125 57 L 217.679688 76.5 L 251.453125 96 L 285.230469 76.5 Z M 251.453125 57 L 251.453125 18 L 217.679688 37.5 L 217.679688 76.5 "/>
<path style="fill-rule:evenodd;fill:rgb(100%,100%,100%);fill-opacity:1;stroke-width:1;stroke-linecap:round;stroke-linejoin:miter;stroke:rgb(74.509804%,74.509804%,74.509804%);stroke-opacity:1;stroke-miterlimit:10;" d="M 251.453125 57 L 251.453125 79 L 270.507812 68 L 270.507812 46 Z M 251.453125 57 L 232.402344 46 L 232.402344 68 L 251.453125 79 Z M 251.453125 57 L 270.507812 46 L 251.453125 35 L 232.402344 46 "/>
<path style="fill-rule:evenodd;fill:rgb(100%,100%,100%);fill-opacity:1;stroke-width:1;stroke-linecap:round;stroke-linejoin:miter;stroke:rgb(74.509804%,74.509804%,74.509804%);stroke-opacity:1;stroke-miterlimit:10;" d="M 350.179688 57 L 350.179688 114 L 399.542969 85.5 L 399.542969 28.5 Z M 350.179688 57 L 300.816406 28.5 L 300.816406 85.5 L 350.179688 114 Z M 350.179688 57 L 399.542969 28.5 L 350.179688 0 L 300.816406 28.5 "/>
<path style="fill-rule:evenodd;fill:rgb(100%,100%,100%);fill-opacity:1;stroke-width:1;stroke-linecap:round;stroke-linejoin:miter;stroke:rgb(74.509804%,74.509804%,74.509804%);stroke-opacity:1;stroke-miterlimit:10;" d="M 350.179688 57 L 389.152344 79.5 L 389.152344 34.5 L 350.179688 12 Z M 350.179688 57 L 311.210938 79.5 L 350.179688 102 L 389.152344 79.5 Z M 350.179688 57 L 350.179688 12 L 311.210938 34.5 L 311.210938 79.5 "/>
<path style="fill-rule:evenodd;fill:rgb(100%,100%,100%);fill-opacity:1;stroke-width:1;stroke-linecap:round;stroke-linejoin:miter;stroke:rgb(74.509804%,74.509804%,74.509804%);stroke-opacity:1;stroke-miterlimit:10;" d="M 350.179688 57 L 350.179688 83 L 372.699219 70 L 372.699219 44 Z M 350.179688 57 L 327.664062 44 L 327.664062 70 L 350.179688 83 Z M 350.179688 57 L 372.699219 44 L 350.179688 31 L 327.664062 44 "/>
<path style="fill-rule:evenodd;fill:rgb(100%,100%,100%);fill-opacity:1;stroke-width:1;stroke-linecap:round;stroke-linejoin:miter;stroke:rgb(74.509804%,74.509804%,74.509804%);stroke-opacity:1;stroke-miterlimit:10;" d="M 448.90625 57 L 498.269531 85.5 L 498.269531 28.5 L 448.90625 0 Z M 448.90625 57 L 399.542969 85.5 L 448.90625 114 L 498.269531 85.5 Z M 448.90625 57 L 448.90625 0 L 399.542969 28.5 L 399.542969 85.5 "/>
<path style="fill-rule:evenodd;fill:rgb(100%,100%,100%);fill-opacity:1;stroke-width:1;stroke-linecap:round;stroke-linejoin:miter;stroke:rgb(74.509804%,74.509804%,74.509804%);stroke-opacity:1;stroke-miterlimit:10;" d="M 448.90625 57 L 448.90625 97 L 483.546875 77 L 483.546875 37 Z M 448.90625 57 L 414.265625 37 L 414.265625 77 L 448.90625 97 Z M 448.90625 57 L 483.546875 37 L 448.90625 17 L 414.265625 37 "/>
<path style="fill-rule:evenodd;fill:rgb(100%,100%,100%);fill-opacity:1;stroke-width:1;stroke-linecap:round;stroke-linejoin:miter;stroke:rgb(74.509804%,74.509804%,74.509804%);stroke-opacity:1;stroke-miterlimit:10;" d="M 448.90625 57 L 468.824219 68.5 L 468.824219 45.5 L 448.90625 34 Z M 448.90625 57 L 428.988281 68.5 L 448.90625 80 L 468.824219 68.5 Z M 448.90625 57 L 448.90625 34 L 428.988281 45.5 L 428.988281 68.5 "/>
<path style="fill-rule:evenodd;fill:rgb(100%,100%,100%);fill-opacity:1;stroke-width:1;stroke-linecap:round;stroke-linejoin:miter;stroke:rgb(74.509804%,74.509804%,74.509804%);stroke-opacity:1;stroke-miterlimit:10;" d="M 448.90625 57 L 448.90625 70 L 460.164062 63.5 L 460.164062 50.5 Z M 448.90625 57 L 437.648438 50.5 L 437.648438 63.5 L 448.90625 70 Z M 448.90625 57 L 460.164062 50.5 L 448.90625 44 L 437.648438 50.5 "/>
<path style="fill-rule:evenodd;fill:rgb(100%,100%,100%);fill-opacity:1;stroke-width:1;stroke-linecap:round;stroke-linejoin:miter;stroke:rgb(74.509804%,74.509804%,74.509804%);stroke-opacity:1;stroke-miterlimit:10;" d="M 448.90625 57 L 457.566406 62 L 457.566406 52 L 448.90625 47 Z M 448.90625 57 L 440.246094 62 L 448.90625 67 L 457.566406 62 Z M 448.90625 57 L 448.90625 47 L 440.246094 52 L 440.246094 62 "/>
<path style="fill-rule:evenodd;fill:rgb(100%,100%,100%);fill-opacity:1;stroke-width:1;stroke-linecap:round;stroke-linejoin:miter;stroke:rgb(74.509804%,74.509804%,74.509804%);stroke-opacity:1;stroke-miterlimit:10;" d="M 103.363281 142.5 L 152.726562 171 L 152.726562 114 L 103.363281 85.5 Z M 103.363281 142.5 L 54 171 L 103.363281 199.5 L 152.726562 171 Z M 103.363281 142.5 L 103.363281 85.5 L 54 114 L 54 171 "/>
<path style="fill-rule:evenodd;fill:rgb(100%,100%,100%);fill-opacity:1;stroke-width:1;stroke-linecap:round;stroke-linejoin:miter;stroke:rgb(74.509804%,74.509804%,74.509804%);stroke-opacity:1;stroke-miterlimit:10;" d="M 103.363281 142.5 L 103.363281 186.5 L 141.46875 164.5 L 141.46875 120.5 Z M 103.363281 142.5 L 65.257812 120.5 L 65.257812 164.5 L 103.363281 186.5 Z M 103.363281 142.5 L 141.46875 120.5 L 103.363281 98.5 L 65.257812 120.5 "/>
<path style="fill-rule:evenodd;fill:rgb(100%,100%,100%);fill-opacity:1;stroke-width:1;stroke-linecap:round;stroke-linejoin:miter;stroke:rgb(74.509804%,74.509804%,74.509804%);stroke-opacity:1;stroke-miterlimit:10;" d="M 103.363281 142.5 L 129.34375 157.5 L 129.34375 127.5 L 103.363281 112.5 Z M 103.363281 142.5 L 77.382812 157.5 L 103.363281 172.5 L 129.34375 157.5 Z M 103.363281 142.5 L 103.363281 112.5 L 77.382812 127.5 L 77.382812 157.5 "/>
<path style="fill-rule:evenodd;fill:rgb(100%,100%,100%);fill-opacity:1;stroke-width:1;stroke-linecap:round;stroke-linejoin:miter;stroke:rgb(74.509804%,74.509804%,74.509804%);stroke-opacity:1;stroke-miterlimit:10;" d="M 103.363281 142.5 L 103.363281 158.5 L 117.21875 150.5 L 117.21875 134.5 Z M 103.363281 142.5 L 89.507812 134.5 L 89.507812 150.5 L 103.363281 158.5 Z M 103.363281 142.5 L 117.21875 134.5 L 103.363281 126.5 L 89.507812 134.5 "/>
<path style="fill-rule:evenodd;fill:rgb(100%,100%,100%);fill-opacity:1;stroke-width:1;stroke-linecap:round;stroke-linejoin:miter;stroke:rgb(74.509804%,74.509804%,74.509804%);stroke-opacity:1;stroke-miterlimit:10;" d="M 103.363281 142.5 L 112.023438 147.5 L 112.023438 137.5 L 103.363281 132.5 Z M 103.363281 142.5 L 94.703125 147.5 L 103.363281 152.5 L 112.023438 147.5 Z M 103.363281 142.5 L 103.363281 132.5 L 94.703125 137.5 L 94.703125 147.5 "/>
<path style="fill-rule:evenodd;fill:rgb(100%,100%,100%);fill-opacity:1;stroke-width:1;stroke-linecap:round;stroke-linejoin:miter;stroke:rgb(74.509804%,74.509804%,74.509804%);stroke-opacity:1;stroke-miterlimit:10;" d="M 202.089844 142.5 L 251.453125 171 L 251.453125 114 L 202.089844 85.5 Z M 202.089844 142.5 L 152.726562 171 L 202.089844 199.5 L 251.453125 171 Z M 202.089844 142.5 L 202.089844 85.5 L 152.726562 114 L 152.726562 171 "/>
<path style="fill-rule:evenodd;fill:rgb(100%,100%,100%);fill-opacity:1;stroke-width:1;stroke-linecap:round;stroke-linejoin:miter;stroke:rgb(74.509804%,74.509804%,74.509804%);stroke-opacity:1;stroke-miterlimit:10;" d="M 202.089844 142.5 L 202.089844 179.5 L 234.132812 161 L 234.132812 124 Z M 202.089844 142.5 L 170.046875 124 L 170.046875 161 L 202.089844 179.5 Z M 202.089844 142.5 L 234.132812 124 L 202.089844 105.5 L 170.046875 124 "/>
<path style="fill-rule:evenodd;fill:rgb(100%,100%,100%);fill-opacity:1;stroke-width:1;stroke-linecap:round;stroke-linejoin:miter;stroke:rgb(74.509804%,74.509804%,74.509804%);stroke-opacity:1;stroke-miterlimit:10;" d="M 202.089844 142.5 L 222.875 154.5 L 222.875 130.5 L 202.089844 118.5 Z M 202.089844 142.5 L 181.304688 154.5 L 202.089844 166.5 L 222.875 154.5 Z M 202.089844 142.5 L 202.089844 118.5 L 181.304688 130.5 L 181.304688 154.5 "/>
<path style="fill-rule:evenodd;fill:rgb(100%,100%,100%);fill-opacity:1;stroke-width:1;stroke-linecap:round;stroke-linejoin:miter;stroke:rgb(74.509804%,74.509804%,74.509804%);stroke-opacity:1;stroke-miterlimit:10;" d="M 202.089844 142.5 L 202.089844 155.5 L 213.347656 149 L 213.347656 136 Z M 202.089844 142.5 L 190.832031 136 L 190.832031 149 L 202.089844 155.5 Z M 202.089844 142.5 L 213.347656 136 L 202.089844 129.5 L 190.832031 136 "/>
<path style="fill-rule:evenodd;fill:rgb(100%,100%,100%);fill-opacity:1;stroke-width:1;stroke-linecap:round;stroke-linejoin:miter;stroke:rgb(74.509804%,74.509804%,74.509804%);stroke-opacity:1;stroke-miterlimit:10;" d="M 202.089844 142.5 L 210.75 147.5 L 210.75 137.5 L 202.089844 132.5 Z M 202.089844 142.5 L 193.429688 147.5 L 202.089844 152.5 L 210.75 147.5 Z M 202.089844 142.5 L 202.089844 132.5 L 193.429688 137.5 L 193.429688 147.5 "/>
<path style="fill-rule:evenodd;fill:rgb(100%,100%,100%);fill-opacity:1;stroke-width:1;stroke-linecap:round;stroke-linejoin:miter;stroke:rgb(74.509804%,74.509804%,74.509804%);stroke-opacity:1;stroke-miterlimit:10;" d="M 300.816406 142.5 L 300.816406 199.5 L 350.179688 171 L 350.179688 114 Z M 300.816406 142.5 L 251.453125 114 L 251.453125 171 L 300.816406 199.5 Z M 300.816406 142.5 L 350.179688 114 L 300.816406 85.5 L 251.453125 114 "/>
<path style="fill-rule:evenodd;fill:rgb(100%,100%,100%);fill-opacity:1;stroke-width:1;stroke-linecap:round;stroke-linejoin:miter;stroke:rgb(74.509804%,74.509804%,74.509804%);stroke-opacity:1;stroke-miterlimit:10;" d="M 300.816406 142.5 L 326.796875 157.5 L 326.796875 127.5 L 300.816406 112.5 Z M 300.816406 142.5 L 274.835938 157.5 L 300.816406 172.5 L 326.796875 157.5 Z M 300.816406 142.5 L 300.816406 112.5 L 274.835938 127.5 L 274.835938 157.5 "/>
<path style="fill-rule:evenodd;fill:rgb(100%,100%,100%);fill-opacity:1;stroke-width:1;stroke-linecap:round;stroke-linejoin:miter;stroke:rgb(74.509804%,74.509804%,74.509804%);stroke-opacity:1;stroke-miterlimit:10;" d="M 300.816406 142.5 L 300.816406 159.5 L 315.539062 151 L 315.539062 134 Z M 300.816406 142.5 L 286.09375 134 L 286.09375 151 L 300.816406 159.5 Z M 300.816406 142.5 L 315.539062 134 L 300.816406 125.5 L 286.09375 134 "/>
<path style="fill-rule:evenodd;fill:rgb(100%,100%,100%);fill-opacity:1;stroke-width:1;stroke-linecap:round;stroke-linejoin:miter;stroke:rgb(74.509804%,74.509804%,74.509804%);stroke-opacity:1;stroke-miterlimit:10;" d="M 399.542969 142.5 L 448.90625 171 L 448.90625 114 L 399.542969 85.5 Z M 399.542969 142.5 L 350.179688 171 L 399.542969 199.5 L 448.90625 171 Z M 399.542969 142.5 L 399.542969 85.5 L 350.179688 114 L 350.179688 171 "/>
<path style="fill-rule:evenodd;fill:rgb(100%,100%,100%);fill-opacity:1;stroke-width:1;stroke-linecap:round;stroke-linejoin:miter;stroke:rgb(74.509804%,74.509804%,74.509804%);stroke-opacity:1;stroke-miterlimit:10;" d="M 399.542969 142.5 L 399.542969 181.5 L 433.320312 162 L 433.320312 123 Z M 399.542969 142.5 L 365.769531 123 L 365.769531 162 L 399.542969 181.5 Z M 399.542969 142.5 L 433.320312 123 L 399.542969 103.5 L 365.769531 123 "/>
<path style="fill-rule:evenodd;fill:rgb(100%,100%,100%);fill-opacity:1;stroke-width:1;stroke-linecap:round;stroke-linejoin:miter;stroke:rgb(74.509804%,74.509804%,74.509804%);stroke-opacity:1;stroke-miterlimit:10;" d="M 399.542969 142.5 L 418.597656 153.5 L 418.597656 131.5 L 399.542969 120.5 Z M 399.542969 142.5 L 380.492188 153.5 L 399.542969 164.5 L 418.597656 153.5 Z M 399.542969 142.5 L 399.542969 120.5 L 380.492188 131.5 L 380.492188 153.5 "/>
<path style="fill-rule:evenodd;fill:rgb(100%,100%,100%);fill-opacity:1;stroke-width:1;stroke-linecap:round;stroke-linejoin:miter;stroke:rgb(74.509804%,74.509804%,74.509804%);stroke-opacity:1;stroke-miterlimit:10;" d="M 399.542969 142.5 L 399.542969 154.5 L 409.9375 148.5 L 409.9375 136.5 Z M 399.542969 142.5 L 389.152344 136.5 L 389.152344 148.5 L 399.542969 154.5 Z M 399.542969 142.5 L 409.9375 136.5 L 399.542969 130.5 L 389.152344 136.5 "/>
<path style="fill-rule:evenodd;fill:rgb(100%,100%,100%);fill-opacity:1;stroke-width:1;stroke-linecap:round;stroke-linejoin:miter;stroke:rgb(74.509804%,74.509804%,74.509804%);stroke-opacity:1;stroke-miterlimit:10;" d="M 399.542969 142.5 L 408.203125 147.5 L 408.203125 137.5 L 399.542969 132.5 Z M 399.542969 142.5 L 390.882812 147.5 L 399.542969 152.5 L 408.203125 147.5 Z M 399.542969 142.5 L 399.542969 132.5 L 390.882812 137.5 L 390.882812 147.5 "/>
<path style="fill-rule:evenodd;fill:rgb(100%,100%,100%);fill-opacity:1;stroke-width:1;stroke-linecap:round;stroke-linejoin:miter;stroke:rgb(74.509804%,74.509804%,74.509804%);stroke-opacity:1;stroke-miterlimit:10;" d="M 152.726562 228 L 152.726562 285 L 202.089844 256.5 L 202.089844 199.5 Z M 152.726562 228 L 103.363281 199.5 L 103.363281 256.5 L 152.726562 285 Z M 152.726562 228 L 202.089844 199.5 L 152.726562 171 L 103.363281 199.5 "/>
<path style="fill-rule:evenodd;fill:rgb(100%,100%,100%);fill-opacity:1;stroke-width:1;stroke-linecap:round;stroke-linejoin:miter;stroke:rgb(74.509804%,74.509804%,74.509804%);stroke-opacity:1;stroke-miterlimit:10;" d="M 152.726562 228 L 182.171875 245 L 182.171875 211 L 152.726562 194 Z M 152.726562 228 L 123.28125 245 L 152.726562 262 L 182.171875 245 Z M 152.726562 228 L 152.726562 194 L 123.28125 211 L 123.28125 245 "/>
<path style="fill-rule:evenodd;fill:rgb(100%,100%,100%);fill-opacity:1;stroke-width:1;stroke-linecap:round;stroke-linejoin:miter;stroke:rgb(74.509804%,74.509804%,74.509804%);stroke-opacity:1;stroke-miterlimit:10;" d="M 152.726562 228 L 152.726562 251 L 172.644531 239.5 L 172.644531 216.5 Z M 152.726562 228 L 132.808594 216.5 L 132.808594 239.5 L 152.726562 251 Z M 152.726562 228 L 172.644531 216.5 L 152.726562 205 L 132.808594 216.5 "/>
<path style="fill-rule:evenodd;fill:rgb(100%,100%,100%);fill-opacity:1;stroke-width:1;stroke-linecap:round;stroke-linejoin:miter;stroke:rgb(74.509804%,74.509804%,74.509804%);stroke-opacity:1;stroke-miterlimit:10;" d="M 251.453125 228 L 300.816406 256.5 L 300.816406 199.5 L 251.453125 171 Z M 251.453125 228 L 202.089844 256.5 L 251.453125 285 L 300.816406 256.5 Z M 251.453125 228 L 251.453125 171 L 202.089844 199.5 L 202.089844 256.5 "/>
<path style="fill-rule:evenodd;fill:rgb(100%,100%,100%);fill-opacity:1;stroke-width:1;stroke-linecap:round;stroke-linejoin:miter;stroke:rgb(74.509804%,74.509804%,74.509804%);stroke-opacity:1;stroke-miterlimit:10;" d="M 251.453125 228 L 251.453125 274 L 291.289062 251 L 291.289062 205 Z M 251.453125 228 L 211.617188 205 L 211.617188 251 L 251.453125 274 Z M 251.453125 228 L 291.289062 205 L 251.453125 182 L 211.617188 205 "/>
<path style="fill-rule:evenodd;fill:rgb(100%,100%,100%);fill-opacity:1;stroke-width:1;stroke-linecap:round;stroke-linejoin:miter;stroke:rgb(74.509804%,74.509804%,74.509804%);stroke-opacity:1;stroke-miterlimit:10;" d="M 251.453125 228 L 274.835938 241.5 L 274.835938 214.5 L 251.453125 201 Z M 251.453125 228 L 228.070312 241.5 L 251.453125 255 L 274.835938 241.5 Z M 251.453125 228 L 251.453125 201 L 228.070312 214.5 L 228.070312 241.5 "/>
<path style="fill-rule:evenodd;fill:rgb(100%,100%,100%);fill-opacity:1;stroke-width:1;stroke-linecap:round;stroke-linejoin:miter;stroke:rgb(74.509804%,74.509804%,74.509804%);stroke-opacity:1;stroke-miterlimit:10;" d="M 251.453125 228 L 251.453125 243 L 264.445312 235.5 L 264.445312 220.5 Z M 251.453125 228 L 238.464844 220.5 L 238.464844 235.5 L 251.453125 243 Z M 251.453125 228 L 264.445312 220.5 L 251.453125 213 L 238.464844 220.5 "/>
<path style="fill-rule:evenodd;fill:rgb(100%,100%,100%);fill-opacity:1;stroke-width:1;stroke-linecap:round;stroke-linejoin:miter;stroke:rgb(74.509804%,74.509804%,74.509804%);stroke-opacity:1;stroke-miterlimit:10;" d="M 251.453125 228 L 260.113281 233 L 260.113281 223 L 251.453125 218 Z M 251.453125 228 L 242.792969 233 L 251.453125 238 L 260.113281 233 Z M 251.453125 228 L 251.453125 218 L 242.792969 223 L 242.792969 233 "/>
<path style="fill-rule:evenodd;fill:rgb(100%,100%,100%);fill-opacity:1;stroke-width:1;stroke-linecap:round;stroke-linejoin:miter;stroke:rgb(74.509804%,74.509804%,74.509804%);stroke-opacity:1;stroke-miterlimit:10;" d="M 350.179688 228 L 399.542969 256.5 L 399.542969 199.5 L 350.179688 171 Z M 350.179688 228 L 300.816406 256.5 L 350.179688 285 L 399.542969 256.5 Z M 350.179688 228 L 350.179688 171 L 300.816406 199.5 L 300.816406 256.5 "/>
<path style="fill-rule:evenodd;fill:rgb(100%,100%,100%);fill-opacity:1;stroke-width:1;stroke-linecap:round;stroke-linejoin:miter;stroke:rgb(74.509804%,74.509804%,74.509804%);stroke-opacity:1;stroke-miterlimit:10;" d="M 350.179688 228 L 350.179688 259 L 377.027344 243.5 L 377.027344 212.5 Z M 350.179688 228 L 323.332031 212.5 L 323.332031 243.5 L 350.179688 259 Z M 350.179688 228 L 377.027344 212.5 L 350.179688 197 L 323.332031 212.5 "/>
<path style="fill-rule:evenodd;fill:rgb(100%,100%,100%);fill-opacity:1;stroke-width:1;stroke-linecap:round;stroke-linejoin:miter;stroke:rgb(74.509804%,74.509804%,74.509804%);stroke-opacity:1;stroke-miterlimit:10;" d="M 350.179688 228 L 367.5 238 L 367.5 218 L 350.179688 208 Z M 350.179688 228 L 332.859375 238 L 350.179688 248 L 367.5 238 Z M 350.179688 228 L 350.179688 208 L 332.859375 218 L 332.859375 238 "/>
<path style="fill-rule:evenodd;fill:rgb(100%,100%,100%);fill-opacity:1;stroke-width:1;stroke-linecap:round;stroke-linejoin:miter;stroke:rgb(74.509804%,74.509804%,74.509804%);stroke-opacity:1;stroke-miterlimit:10;" d="M 350.179688 228 L 350.179688 238 L 358.839844 233 L 358.839844 223 Z M 350.179688 228 L 341.519531 223 L 341.519531 233 L 350.179688 238 Z M 350.179688 228 L 358.839844 223 L 350.179688 218 L 341.519531 223 "/>
</g>
</svg>
